<svg width="153" height="153" viewBox="0 0 153 153" fill="none" xmlns="http://www.w3.org/2000/svg">
<path d="M139.425 26.7539V31.1927C139.425 42.3628 130.372 51.4162 119.201 51.4162" stroke="#2A2826" stroke-width="1.3" stroke-miterlimit="10" stroke-linecap="round"/>
<path d="M135.156 26.7539V31.1927C135.156 40.0057 128.014 47.1475 119.201 47.1475" stroke="#2A2826" stroke-width="1.3" stroke-miterlimit="10" stroke-linecap="round"/>
<path d="M130.888 26.7539V31.1927C130.888 37.6485 125.657 42.8788 119.201 42.8788" stroke="#2A2826" stroke-width="1.3" stroke-miterlimit="10" stroke-linecap="round"/>
<path d="M126.619 26.7539V31.1927C126.619 35.2913 123.294 38.6101 119.201 38.6101" stroke="#2A2826" stroke-width="1.3" stroke-miterlimit="10" stroke-linecap="round"/>
<path d="M79.933 63.2665V58.8278C79.933 47.6576 88.9864 38.6042 100.157 38.6042H119.196" stroke="#2A2826" stroke-width="1.3" stroke-miterlimit="10" stroke-linecap="round"/>
<path d="M84.202 63.2664V59.4551C84.202 58.7221 84.2724 57.3735 84.3721 56.6698C85.2165 50.7417 89.3503 46.0743 94.7389 44.0044C96.4276 43.3595 99.8402 42.8728 101.764 42.8728H119.196" stroke="#2A2826" stroke-width="1.3" stroke-miterlimit="10" stroke-linecap="round"/>
<path d="M88.4706 63.2665V60.0826C88.4706 59.7132 88.5175 58.1007 88.5585 57.7489C89.1449 52.7472 92.7979 49.147 97.4536 47.7045C98.3155 47.4348 102.42 47.1416 103.382 47.1416H119.202" stroke="#2A2826" stroke-width="1.3" stroke-miterlimit="10" stroke-linecap="round"/>
<path d="M92.7395 63.2665V58.8277C92.7395 54.7291 96.0642 51.4102 100.157 51.4102H119.196" stroke="#2A2826" stroke-width="1.3" stroke-miterlimit="10" stroke-linecap="round"/>
<path d="M145.881 72.9005H148.613C149.933 72.9005 151 73.9677 151 75.287V103.702C151 105.021 149.933 106.088 148.613 106.088H137.754C136.212 106.088 134.951 107.349 134.951 108.891V122.899C134.951 124.219 133.884 125.286 132.565 125.286H79.9213" stroke="#2A2826" stroke-width="1.3" stroke-miterlimit="10" stroke-linecap="round"/>
<path d="M140.762 67.8754H143.495C144.814 67.8754 145.881 68.9426 145.881 70.2619V98.6769C145.881 99.9962 144.814 101.063 143.495 101.063H132.635C131.093 101.063 129.832 102.324 129.832 103.866V117.874C129.832 119.194 128.765 120.261 127.446 120.261H64.8636" stroke="#2A2826" stroke-width="1.3" stroke-miterlimit="10" stroke-linecap="round"/>
<path d="M140.762 65.6589V94.0739C140.762 95.3932 139.695 96.4604 138.376 96.4604H127.516C125.974 96.4604 124.714 97.7211 124.714 99.2632V113.271C124.714 114.591 123.646 115.658 122.327 115.658H54.5789C53.7698 115.658 53.1189 115.001 53.1189 114.198V107.191C53.1189 104.071 50.5858 101.538 47.4664 101.538C44.347 101.538 41.8139 104.071 41.8139 107.191V114.198C41.8139 115.007 41.1571 115.658 40.3538 115.658H20.4176C19.0983 115.658 18.0311 114.591 18.0311 113.271V99.2632C18.0311 97.7211 16.7704 96.4604 15.2283 96.4604H4.38649C3.06718 96.4604 2 95.3932 2 94.0739V65.6589C2 64.3396 3.06718 63.2724 4.38649 63.2724H138.382C139.701 63.2724 140.768 64.3396 140.768 65.6589H140.762Z" stroke="#2A2826" stroke-width="1.3" stroke-miterlimit="10"/>
<path d="M23.6018 97.0292H21.0862V115.652H23.6018V97.0292Z" fill="#2A2826"/>
<path d="M28.404 97.0292H25.8885V115.652H28.404V97.0292Z" fill="#2A2826"/>
<path d="M33.6284 97.0292H31.1129V115.652H33.6284V97.0292Z" fill="#2A2826"/>
<path d="M38.642 97.0292H36.1265V115.652H38.642V97.0292Z" fill="#2A2826"/>
<path d="M59.7446 97.0292H57.2291V115.652H59.7446V97.0292Z" fill="#2A2826"/>
<path d="M64.8697 97.0292H62.3542V115.652H64.8697V97.0292Z" fill="#2A2826"/>
<path d="M69.9884 97.0292H67.4729V115.652H69.9884V97.0292Z" fill="#2A2826"/>
<path d="M75.1075 97.0292H72.592V115.652H75.1075V97.0292Z" fill="#2A2826"/>
<path d="M80.2264 97.0292H77.7109V115.652H80.2264V97.0292Z" fill="#2A2826"/>
<path d="M85.3453 97.0292H82.8298V115.652H85.3453V97.0292Z" fill="#2A2826"/>
<path d="M90.4642 97.0292H87.9487V115.652H90.4642V97.0292Z" fill="#2A2826"/>
<path d="M95.5831 97.0292H93.0676V115.652H95.5831V97.0292Z" fill="#2A2826"/>
<path d="M100.702 97.0292H98.1865V115.652H100.702V97.0292Z" fill="#2A2826"/>
<path d="M105.821 97.0292H103.306V115.652H105.821V97.0292Z" fill="#2A2826"/>
<path d="M110.94 97.0292H108.424V115.652H110.94V97.0292Z" fill="#2A2826"/>
<path d="M116.059 97.0292H113.543V115.652H116.059V97.0292Z" fill="#2A2826"/>
<path d="M121.178 97.0292H118.662V115.652H121.178V97.0292Z" fill="#2A2826"/>
<path d="M79.9216 69.6052H100.696" stroke="#2A2826" stroke-width="1.3" stroke-miterlimit="10" stroke-linecap="round"/>
<path d="M79.9216 75.6272H107.563" stroke="#2A2826" stroke-width="1.3" stroke-miterlimit="10" stroke-linecap="round"/>
<path d="M79.7163 81.6491H114.798" stroke="#2A2826" stroke-width="1.3" stroke-miterlimit="10" stroke-linecap="round"/>
<path d="M79.7163 87.6652H121.178" stroke="#2A2826" stroke-width="1.3" stroke-miterlimit="10" stroke-linecap="round"/>
<path d="M51.0024 67.7639H36.7773C36.4178 67.7639 36.1264 68.0553 36.1264 68.4148V70.7954C36.1264 71.1549 36.4178 71.4463 36.7773 71.4463H51.0024C51.3618 71.4463 51.6532 71.1549 51.6532 70.7954V68.4148C51.6532 68.0553 51.3618 67.7639 51.0024 67.7639Z" fill="#2A2826"/>
<path d="M51.0024 73.786H36.7773C36.4178 73.786 36.1264 74.0774 36.1264 74.4369V76.8175C36.1264 77.177 36.4178 77.4684 36.7773 77.4684H51.0024C51.3618 77.4684 51.6532 77.177 51.6532 76.8175V74.4369C51.6532 74.0774 51.3618 73.786 51.0024 73.786Z" fill="#2A2826"/>
<path d="M50.7911 79.8078H36.566C36.2066 79.8078 35.9152 80.0992 35.9152 80.4587V82.8393C35.9152 83.1988 36.2066 83.4902 36.566 83.4902H50.7911C51.1506 83.4902 51.442 83.1988 51.442 82.8393V80.4587C51.442 80.0992 51.1506 79.8078 50.7911 79.8078Z" fill="#2A2826"/>
<path d="M50.7911 85.8239H36.566C36.2066 85.8239 35.9152 86.1153 35.9152 86.4748V88.8554C35.9152 89.2149 36.2066 89.5063 36.566 89.5063H50.7911C51.1506 89.5063 51.442 89.2149 51.442 88.8554V86.4748C51.442 86.1153 51.1506 85.8239 50.7911 85.8239Z" fill="#2A2826"/>
<path d="M87.0339 67.7639H72.8088C72.4494 67.7639 72.158 68.0553 72.158 68.4148V70.7954C72.158 71.1549 72.4494 71.4463 72.8088 71.4463H87.0339C87.3933 71.4463 87.6847 71.1549 87.6847 70.7954V68.4148C87.6847 68.0553 87.3933 67.7639 87.0339 67.7639Z" fill="#2A2826"/>
<path d="M87.0339 73.786H72.8088C72.4494 73.786 72.158 74.0774 72.158 74.4369V76.8175C72.158 77.177 72.4494 77.4684 72.8088 77.4684H87.0339C87.3933 77.4684 87.6847 77.177 87.6847 76.8175V74.4369C87.6847 74.0774 87.3933 73.786 87.0339 73.786Z" fill="#2A2826"/>
<path d="M86.8287 79.8078H72.6036C72.2442 79.8078 71.9528 80.0992 71.9528 80.4587V82.8393C71.9528 83.1988 72.2442 83.4902 72.6036 83.4902H86.8287C87.1882 83.4902 87.4796 83.1988 87.4796 82.8393V80.4587C87.4796 80.0992 87.1882 79.8078 86.8287 79.8078Z" fill="#2A2826"/>
<path d="M86.8287 85.8239H72.6036C72.2442 85.8239 71.9528 86.1153 71.9528 86.4748V88.8554C71.9528 89.2149 72.2442 89.5063 72.6036 89.5063H86.8287C87.1882 89.5063 87.4796 89.2149 87.4796 88.8554V86.4748C87.4796 86.1153 87.1882 85.8239 86.8287 85.8239Z" fill="#2A2826"/>
<path d="M107.926 77.8787C109.17 77.8787 110.178 76.8706 110.178 75.6271C110.178 74.3835 109.17 73.3755 107.926 73.3755C106.683 73.3755 105.674 74.3835 105.674 75.6271C105.674 76.8706 106.683 77.8787 107.926 77.8787Z" fill="white" stroke="#2A2826" stroke-width="1.3" stroke-miterlimit="10" stroke-linecap="round"/>
<path d="M121.676 89.9167C122.92 89.9167 123.928 88.9086 123.928 87.6651C123.928 86.4216 122.92 85.4135 121.676 85.4135C120.433 85.4135 119.425 86.4216 119.425 87.6651C119.425 88.9086 120.433 89.9167 121.676 89.9167Z" fill="white" stroke="#2A2826" stroke-width="1.3" stroke-miterlimit="10" stroke-linecap="round"/>
</svg>
