<svg width="153" height="153" viewBox="0 0 153 153" fill="none" xmlns="http://www.w3.org/2000/svg">
<path d="M147.088 102.571V28.2227C147.088 26.9746 146.074 25.9609 144.826 25.9609H142.236V94.8419C142.236 97.7308 139.898 100.069 137.009 100.069H127.763C127.352 100.069 127.018 100.403 127.018 100.813V112.82C127.018 115.831 124.575 118.275 121.563 118.275H65.415L79.6952 123.039H142.506C145.031 123.039 147.082 120.988 147.082 118.462V102.577L147.088 102.571Z" fill="#B6B8B7" stroke="#2A2826" stroke-width="1.3" stroke-miterlimit="10"/>
<path d="M24.4678 114.501H43.3713C44.1389 114.501 44.7601 113.88 44.7601 113.113V112.204C44.7601 111.865 45.0355 111.595 45.3695 111.595H54.8622C55.2021 111.595 55.4716 111.87 55.4716 112.204V113.113C55.4716 113.88 56.0928 114.501 56.8604 114.501H121.095C122.343 114.501 123.357 113.488 123.357 112.24V98.9555C123.357 97.4965 124.552 96.3011 126.011 96.3011H136.307C137.555 96.3011 138.568 95.2873 138.568 94.0392V19.6969C138.568 18.4488 137.555 17.4351 136.307 17.4351H9.26188C8.01376 17.4351 7 18.4488 7 19.6969V94.0392L24.462 114.501H24.4678Z" fill="white" stroke="#2A2826" stroke-width="1.3" stroke-miterlimit="10"/>
<path d="M53.4444 45.5207H40.0198C39.6606 45.5207 39.3694 45.8119 39.3694 46.1711V48.3627C39.3694 48.7219 39.6606 49.0131 40.0198 49.0131H53.4444C53.8036 49.0131 54.0948 48.7219 54.0948 48.3627V46.1711C54.0948 45.8119 53.8036 45.5207 53.4444 45.5207Z" fill="#2A2826"/>
<path d="M53.4444 51.234H40.0198C39.6606 51.234 39.3694 51.5252 39.3694 51.8844V54.0759C39.3694 54.4352 39.6606 54.7264 40.0198 54.7264H53.4444C53.8036 54.7264 54.0948 54.4352 54.0948 54.0759V51.8844C54.0948 51.5252 53.8036 51.234 53.4444 51.234Z" fill="#2A2826"/>
<path d="M53.2449 56.9412H39.8202C39.461 56.9412 39.1698 57.2324 39.1698 57.5917V59.7832C39.1698 60.1424 39.461 60.4336 39.8202 60.4336H53.2449C53.6041 60.4336 53.8953 60.1424 53.8953 59.7832V57.5917C53.8953 57.2324 53.6041 56.9412 53.2449 56.9412Z" fill="#2A2826"/>
<path d="M53.2449 62.6487H39.8202C39.461 62.6487 39.1698 62.9399 39.1698 63.2991V65.4907C39.1698 65.8499 39.461 66.1411 39.8202 66.1411H53.2449C53.6041 66.1411 53.8953 65.8499 53.8953 65.4907V63.2991C53.8953 62.9399 53.6041 62.6487 53.2449 62.6487Z" fill="#2A2826"/>
<path d="M87.6065 45.5207H74.1819C73.8227 45.5207 73.5315 45.8119 73.5315 46.1711V48.3627C73.5315 48.7219 73.8227 49.0131 74.1819 49.0131H87.6065C87.9657 49.0131 88.257 48.7219 88.257 48.3627V46.1711C88.257 45.8119 87.9657 45.5207 87.6065 45.5207Z" fill="#2A2826"/>
<path d="M87.6065 51.234H74.1819C73.8227 51.234 73.5315 51.5252 73.5315 51.8844V54.0759C73.5315 54.4352 73.8227 54.7264 74.1819 54.7264H87.6065C87.9657 54.7264 88.257 54.4352 88.257 54.0759V51.8844C88.257 51.5252 87.9657 51.234 87.6065 51.234Z" fill="#2A2826"/>
<path d="M87.407 56.9412H73.9823C73.6231 56.9412 73.3319 57.2324 73.3319 57.5917V59.7832C73.3319 60.1424 73.6231 60.4336 73.9823 60.4336H87.407C87.7662 60.4336 88.0574 60.1424 88.0574 59.7832V57.5917C88.0574 57.2324 87.7662 56.9412 87.407 56.9412Z" fill="#2A2826"/>
<path d="M87.407 62.6487H73.9823C73.6231 62.6487 73.3319 62.9399 73.3319 63.2991V65.4907C73.3319 65.8499 73.6231 66.1411 73.9823 66.1411H87.407C87.7662 66.1411 88.0574 65.8499 88.0574 65.4907V63.2991C88.0574 62.9399 87.7662 62.6487 87.407 62.6487Z" fill="#2A2826"/>
<path d="M46.5298 47.2668H33.99C29.2729 47.2668 26.2961 49.5932 26.2961 54.9607V86.0231C26.2961 88.8181 24.0285 91.0859 21.2334 91.0859H17.4304" stroke="#2A2826" stroke-width="1.3" stroke-miterlimit="10" stroke-linecap="round"/>
<path d="M30.849 105.677V59.1212C30.849 55.5468 32.9468 52.9743 36.9958 52.9743H46.7289" stroke="#2A2826" stroke-width="1.3" stroke-miterlimit="10" stroke-linecap="round"/>
<path d="M80.8906 47.2668H100.591" stroke="#2A2826" stroke-width="1.3" stroke-miterlimit="10" stroke-linecap="round"/>
<path d="M80.8906 52.9801H107.101" stroke="#2A2826" stroke-width="1.3" stroke-miterlimit="10" stroke-linecap="round"/>
<path d="M80.6917 58.6874H113.957" stroke="#2A2826" stroke-width="1.3" stroke-miterlimit="10" stroke-linecap="round"/>
<path d="M80.6917 64.3946H120.005" stroke="#2A2826" stroke-width="1.3" stroke-miterlimit="10" stroke-linecap="round"/>
<path d="M75.1305 93.2249V105.677" stroke="#2A2826" stroke-width="1.3" stroke-miterlimit="10" stroke-linecap="round"/>
<path d="M109.234 55.119C110.415 55.119 111.373 54.1614 111.373 52.9802C111.373 51.799 110.415 50.8414 109.234 50.8414C108.053 50.8414 107.095 51.799 107.095 52.9802C107.095 54.1614 108.053 55.119 109.234 55.119Z" fill="white" stroke="#2A2826" stroke-width="1.3" stroke-miterlimit="10" stroke-linecap="round"/>
<path d="M122.273 66.5337C123.454 66.5337 124.411 65.5762 124.411 64.3949C124.411 63.2137 123.454 62.2561 122.273 62.2561C121.091 62.2561 120.134 63.2137 120.134 64.3949C120.134 65.5762 121.091 66.5337 122.273 66.5337Z" fill="white" stroke="#2A2826" stroke-width="1.3" stroke-miterlimit="10" stroke-linecap="round"/>
<path d="M75.1306 93.225C76.3119 93.225 77.2694 92.2674 77.2694 91.0862C77.2694 89.905 76.3119 88.9474 75.1306 88.9474C73.9494 88.9474 72.9918 89.905 72.9918 91.0862C72.9918 92.2674 73.9494 93.225 75.1306 93.225Z" fill="white" stroke="#2A2826" stroke-width="1.3" stroke-miterlimit="10" stroke-linecap="round"/>
<path d="M75.1306 107.816C76.3119 107.816 77.2694 106.858 77.2694 105.677C77.2694 104.495 76.3119 103.538 75.1306 103.538C73.9494 103.538 72.9918 104.495 72.9918 105.677C72.9918 106.858 73.9494 107.816 75.1306 107.816Z" fill="white" stroke="#2A2826" stroke-width="1.3" stroke-miterlimit="10" stroke-linecap="round"/>
<path d="M30.8486 107.816C32.0298 107.816 32.9874 106.858 32.9874 105.677C32.9874 104.495 32.0298 103.538 30.8486 103.538C29.6674 103.538 28.7098 104.495 28.7098 105.677C28.7098 106.858 29.6674 107.816 30.8486 107.816Z" fill="white" stroke="#2A2826" stroke-width="1.3" stroke-miterlimit="10" stroke-linecap="round"/>
<path d="M17.4298 93.225C18.6111 93.225 19.5686 92.2674 19.5686 91.0862C19.5686 89.905 18.6111 88.9474 17.4298 88.9474C16.2486 88.9474 15.291 89.905 15.291 91.0862C15.291 92.2674 16.2486 93.225 17.4298 93.225Z" fill="white" stroke="#2A2826" stroke-width="1.3" stroke-miterlimit="10" stroke-linecap="round"/>
<path d="M137.478 114.501C139.083 114.501 140.384 113.2 140.384 111.595C140.384 109.99 139.083 108.688 137.478 108.688C135.873 108.688 134.572 109.99 134.572 111.595C134.572 113.2 135.873 114.501 137.478 114.501Z" fill="white"/>
</svg>
