<svg width="153" height="153" viewBox="0 0 153 153" fill="none" xmlns="http://www.w3.org/2000/svg">
<path d="M143.848 26.9246H146.463C147.725 26.9246 148.749 27.9489 148.749 29.21V104.327C148.749 105.588 147.725 106.612 146.463 106.612H136.061C134.585 106.612 133.379 107.818 133.379 109.294V122.715C133.379 123.976 132.354 125 131.093 125H80.6594" stroke="#2A2826" stroke-width="1.3" stroke-miterlimit="10" stroke-linecap="round"/>
<path d="M138.941 22.1059H141.557C142.818 22.1059 143.842 23.1302 143.842 24.3913V99.5133C143.842 100.774 142.818 101.799 141.557 101.799H131.154C129.678 101.799 128.472 103.005 128.472 104.481V117.901C128.472 119.163 127.447 120.187 126.186 120.187H66.2308" stroke="#2A2826" stroke-width="1.3" stroke-miterlimit="10" stroke-linecap="round"/>
<path d="M138.941 19.98V95.102C138.941 96.3632 137.917 97.3875 136.655 97.3875H126.253C124.777 97.3875 123.571 98.5935 123.571 100.069V113.49C123.571 114.751 122.546 115.776 121.285 115.776H56.3787C55.6077 115.776 54.9799 115.148 54.9799 114.377V107.664C54.9799 104.673 52.5568 102.25 49.5665 102.25C46.5761 102.25 44.153 104.673 44.153 107.664V114.377C44.153 115.148 43.5252 115.776 42.7542 115.776H23.6447C22.3836 115.776 21.3592 114.751 21.3592 113.49V100.069C21.3592 98.5935 20.1532 97.3875 18.6773 97.3875H8.28544C7.02432 97.3875 6 96.3632 6 95.102V19.98C6 18.7189 7.02432 17.6946 8.28544 17.6946H136.655C137.917 17.6946 138.941 18.7189 138.941 19.98Z" fill="white" stroke="#2A2826" stroke-width="1.3" stroke-miterlimit="10"/>
<path d="M26.6955 97.9327H24.2889V115.776H26.6955V97.9327Z" fill="#2A2826"/>
<path d="M31.2994 97.9329H28.8928V115.776H31.2994V97.9329Z" fill="#2A2826"/>
<path d="M36.3053 97.9329H33.8987V115.776H36.3053V97.9329Z" fill="#2A2826"/>
<path d="M41.1074 97.9329H38.7008V115.776H41.1074V97.9329Z" fill="#2A2826"/>
<path d="M61.3293 97.9329H58.9227V115.776H61.3293V97.9329Z" fill="#2A2826"/>
<path d="M66.2307 97.9329H63.8241V115.776H66.2307V97.9329Z" fill="#2A2826"/>
<path d="M71.1375 97.9329H68.731V115.776H71.1375V97.9329Z" fill="#2A2826"/>
<path d="M76.0389 97.9329H73.6323V115.776H76.0389V97.9329Z" fill="#2A2826"/>
<path d="M80.9455 97.9329H78.5389V115.776H80.9455V97.9329Z" fill="#2A2826"/>
<path d="M85.847 97.9329H83.4404V115.776H85.847V97.9329Z" fill="#2A2826"/>
<path d="M90.7538 97.9329H88.3472V115.776H90.7538V97.9329Z" fill="#2A2826"/>
<path d="M95.655 97.9329H93.2484V115.776H95.655V97.9329Z" fill="#2A2826"/>
<path d="M100.562 97.9329H98.1552V115.776H100.562V97.9329Z" fill="#2A2826"/>
<path d="M105.463 97.9329H103.057V115.776H105.463V97.9329Z" fill="#2A2826"/>
<path d="M110.37 97.9329H107.963V115.776H110.37V97.9329Z" fill="#2A2826"/>
<path d="M115.271 97.9329H112.865V115.776H115.271V97.9329Z" fill="#2A2826"/>
<path d="M120.178 97.9329H117.771V115.776H120.178V97.9329Z" fill="#2A2826"/>
<path d="M52.9644 46.078H39.3123C38.9747 46.078 38.701 46.3517 38.701 46.6893V48.9968C38.701 49.3344 38.9747 49.608 39.3123 49.608H52.9644C53.302 49.608 53.5757 49.3344 53.5757 48.9968V46.6893C53.5757 46.3517 53.302 46.078 52.9644 46.078Z" fill="#2A2826"/>
<path d="M52.9644 51.8438H39.3123C38.9747 51.8438 38.701 52.1175 38.701 52.4551V54.7626C38.701 55.1002 38.9747 55.3739 39.3123 55.3739H52.9644C53.302 55.3739 53.5757 55.1002 53.5757 54.7626V52.4551C53.5757 52.1175 53.302 51.8438 52.9644 51.8438Z" fill="#2A2826"/>
<path d="M52.766 57.6099H39.114C38.7764 57.6099 38.5027 57.8835 38.5027 58.2211V60.5286C38.5027 60.8662 38.7764 61.1399 39.114 61.1399H52.766C53.1036 61.1399 53.3773 60.8662 53.3773 60.5286V58.2211C53.3773 57.8835 53.1036 57.6099 52.766 57.6099Z" fill="#2A2826"/>
<path d="M52.766 63.3813H39.114C38.7764 63.3813 38.5027 63.655 38.5027 63.9926V66.3C38.5027 66.6376 38.7764 66.9113 39.114 66.9113H52.766C53.1036 66.9113 53.3773 66.6376 53.3773 66.3V63.9926C53.3773 63.655 53.1036 63.3813 52.766 63.3813Z" fill="#2A2826"/>
<path d="M87.4828 46.078H73.8308C73.4932 46.078 73.2195 46.3517 73.2195 46.6893V48.9968C73.2195 49.3344 73.4932 49.608 73.8308 49.608H87.4828C87.8204 49.608 88.0941 49.3344 88.0941 48.9968V46.6893C88.0941 46.3517 87.8204 46.078 87.4828 46.078Z" fill="#2A2826"/>
<path d="M87.4828 51.8438H73.8308C73.4932 51.8438 73.2195 52.1175 73.2195 52.4551V54.7626C73.2195 55.1002 73.4932 55.3739 73.8308 55.3739H87.4828C87.8204 55.3739 88.0941 55.1002 88.0941 54.7626V52.4551C88.0941 52.1175 87.8204 51.8438 87.4828 51.8438Z" fill="#2A2826"/>
<path d="M87.2842 57.6099H73.6322C73.2946 57.6099 73.0209 57.8835 73.0209 58.2211V60.5286C73.0209 60.8662 73.2946 61.1399 73.6322 61.1399H87.2842C87.6218 61.1399 87.8955 60.8662 87.8955 60.5286V58.2211C87.8955 57.8835 87.6218 57.6099 87.2842 57.6099Z" fill="#2A2826"/>
<path d="M87.2842 63.3813H73.6322C73.2946 63.3813 73.0209 63.655 73.0209 63.9926V66.3C73.0209 66.6376 73.2946 66.9113 73.6322 66.9113H87.2842C87.6218 66.9113 87.8955 66.6376 87.8955 66.3V63.9926C87.8955 63.655 87.6218 63.3813 87.2842 63.3813Z" fill="#2A2826"/>
<path d="M45.9373 47.8403H33.2655C28.5019 47.8403 25.4895 50.1863 25.495 55.6163V106.854" stroke="#2A2826" stroke-width="1.3" stroke-miterlimit="10"/>
<path d="M30.0989 106.854V59.8182C30.0989 56.2056 32.2136 53.6118 36.3054 53.6118H46.141" stroke="#2A2826" stroke-width="1.3" stroke-miterlimit="10"/>
<path d="M35.0991 106.854V61.25C35.1101 60.088 35.6719 59.4712 36.7623 59.3776H46.1353" stroke="#2A2826" stroke-width="1.3" stroke-miterlimit="10"/>
<path d="M80.6593 47.8403H100.562" stroke="#2A2826" stroke-width="1.3" stroke-miterlimit="10" stroke-linecap="round"/>
<path d="M80.6593 53.6118H107.137" stroke="#2A2826" stroke-width="1.3" stroke-miterlimit="10" stroke-linecap="round"/>
<path d="M80.4609 59.3776H114.071" stroke="#2A2826" stroke-width="1.3" stroke-miterlimit="10" stroke-linecap="round"/>
<path d="M80.4609 65.1436H120.178" stroke="#2A2826" stroke-width="1.3" stroke-miterlimit="10" stroke-linecap="round"/>
<path d="M109.296 55.7706C110.488 55.7706 111.455 54.804 111.455 53.6118C111.455 52.4195 110.488 51.453 109.296 51.453C108.104 51.453 107.137 52.4195 107.137 53.6118C107.137 54.804 108.104 55.7706 109.296 55.7706Z" fill="white" stroke="#2A2826" stroke-width="1.3" stroke-miterlimit="10" stroke-linecap="round"/>
<path d="M122.469 67.3024C123.661 67.3024 124.628 66.3359 124.628 65.1436C124.628 63.9514 123.661 62.9849 122.469 62.9849C121.277 62.9849 120.31 63.9514 120.31 65.1436C120.31 66.3359 121.277 67.3024 122.469 67.3024Z" fill="white" stroke="#2A2826" stroke-width="1.3" stroke-miterlimit="10" stroke-linecap="round"/>
<path d="M74.8385 94.2759C76.0307 94.2759 76.9972 93.3094 76.9972 92.1171C76.9972 90.9249 76.0307 89.9583 74.8385 89.9583C73.6462 89.9583 72.6797 90.9249 72.6797 92.1171C72.6797 93.3094 73.6462 94.2759 74.8385 94.2759Z" fill="white" stroke="#2A2826" stroke-width="1.3" stroke-miterlimit="10" stroke-linecap="round"/>
<path d="M74.8384 94.276V106.854" stroke="#2A2826" stroke-width="1.3" stroke-miterlimit="10" stroke-linecap="round"/>
</svg>
