<svg width="153" height="153" viewBox="0 0 153 153" fill="none" xmlns="http://www.w3.org/2000/svg">
<path d="M145.538 26.4136L145.55 26.4256L145.538 106.085H134.508C131.606 106.085 129.246 108.444 129.246 111.346L129.234 125.586H26.411C23.551 123.094 11.266 108.631 9.41355 105.56L9.42563 26.4136H145.532H145.538ZM145.532 24H9.42563C8.08008 24 7 25.0801 7 26.4256V106.073C7 107.4 24.3595 128 25.705 128H129.228C130.556 128 131.654 126.908 131.654 125.574V111.346C131.654 109.778 132.933 108.498 134.502 108.498H145.532C146.859 108.498 147.958 107.406 147.958 106.073V26.4256C147.958 25.0801 146.865 24 145.532 24Z" fill="#2A2826"/>
<path d="M65.1183 61.5489H18.1023V66.6596H65.1183V61.5489Z" fill="white"/>
<path d="M18.1024 61.5549H7.0061V66.6596H18.1024V61.5549Z" fill="#2A2826"/>
<path d="M18.1024 51.5025H7.0061V58.8457H18.1024V51.5025Z" fill="#2A2826"/>
<path d="M18.1024 69.3688H7.0061V76.712H18.1024V69.3688Z" fill="#2A2826"/>
<path d="M110.053 118.436H104.948V128H110.053V118.436Z" fill="#2A2826"/>
<path d="M120.105 118.436H112.762V128H120.105V118.436Z" fill="#2A2826"/>
<path d="M102.239 118.436H94.8958V128H102.239V118.436Z" fill="#2A2826"/>
<path d="M53.841 63.0634H17.3119V65.1391H53.841V63.0634Z" fill="#2A2826"/>
<path d="M65.1123 61.5489H51.3671V66.6535H65.1123V61.5489Z" fill="#2A2826"/>
<path d="M92.3371 61.5489H78.5919V66.6535H92.3371V61.5489Z" fill="#2A2826"/>
<path d="M92.3374 64.1013H99.228C103.796 64.1013 107.501 67.8061 107.501 72.3737V118.436" stroke="white" stroke-width="3" stroke-miterlimit="10"/>
<path d="M85.4646 64.1013H99.2278C103.795 64.1013 107.5 67.8061 107.5 72.3737V123.221" stroke="#2A2826" stroke-width="2" stroke-miterlimit="10"/>
<path d="M134.327 70.1196C134.775 70.1196 135.138 69.7564 135.138 69.3085C135.138 68.8605 134.775 68.4973 134.327 68.4973C133.879 68.4973 133.516 68.8604 133.516 69.3085C133.516 69.7565 133.879 70.1196 134.327 70.1196Z" fill="#2A2826" stroke="#2A2826" stroke-width="0.5"/>
<path d="M120.66 70.1196C121.108 70.1196 121.471 69.7565 121.471 69.3085C121.471 68.8604 121.108 68.4973 120.66 68.4973C120.212 68.4973 119.849 68.8605 119.849 69.3085C119.849 69.7564 120.212 70.1196 120.66 70.1196Z" fill="#2A2826" stroke="#2A2826" stroke-width="0.5"/>
<path d="M134.327 80.2505C134.775 80.2505 135.138 79.8873 135.138 79.4393C135.138 78.9913 134.775 78.6282 134.327 78.6282C133.879 78.6282 133.516 78.9913 133.516 79.4393C133.516 79.8873 133.879 80.2505 134.327 80.2505Z" fill="#2A2826" stroke="#2A2826" stroke-width="0.5"/>
<path d="M120.66 80.2505C121.108 80.2505 121.471 79.8873 121.471 79.4393C121.471 78.9913 121.108 78.6282 120.66 78.6282C120.212 78.6282 119.849 78.9913 119.849 79.4393C119.849 79.8873 120.212 80.2505 120.66 80.2505Z" fill="#2A2826" stroke="#2A2826" stroke-width="0.5"/>
<path d="M134.327 92.0769C134.775 92.0769 135.138 91.7137 135.138 91.2658C135.138 90.8178 134.775 90.4546 134.327 90.4546C133.879 90.4546 133.516 90.8177 133.516 91.2658C133.516 91.7138 133.879 92.0769 134.327 92.0769Z" fill="#2A2826" stroke="#2A2826" stroke-width="0.5"/>
<path d="M120.66 92.0769C121.108 92.0769 121.471 91.7138 121.471 91.2658C121.471 90.8177 121.108 90.4546 120.66 90.4546C120.212 90.4546 119.849 90.8178 119.849 91.2658C119.849 91.7137 120.212 92.0769 120.66 92.0769Z" fill="#2A2826" stroke="#2A2826" stroke-width="0.5"/>
<path d="M134.327 102.449C134.775 102.449 135.138 102.086 135.138 101.638C135.138 101.19 134.775 100.827 134.327 100.827C133.879 100.827 133.516 101.19 133.516 101.638C133.516 102.086 133.879 102.449 134.327 102.449Z" fill="#2A2826" stroke="#2A2826" stroke-width="0.5"/>
<path d="M120.66 102.449C121.108 102.449 121.471 102.086 121.471 101.638C121.471 101.19 121.108 100.827 120.66 100.827C120.212 100.827 119.849 101.19 119.849 101.638C119.849 102.086 120.212 102.449 120.66 102.449Z" fill="#2A2826" stroke="#2A2826" stroke-width="0.5"/>
<path d="M42.4066 67.4646C42.8547 67.4646 43.2178 67.1014 43.2178 66.6535C43.2178 66.2055 42.8547 65.8423 42.4066 65.8423C41.9587 65.8423 41.5955 66.2055 41.5955 66.6535C41.5955 67.1015 41.9587 67.4646 42.4066 67.4646Z" fill="#2A2826" stroke="#2A2826" stroke-width="0.5"/>
<path d="M27.7323 67.4646C28.1802 67.4646 28.5434 67.1015 28.5434 66.6535C28.5434 66.2055 28.1802 65.8423 27.7323 65.8423C27.2842 65.8423 26.9211 66.2055 26.9211 66.6535C26.9211 67.1014 27.2842 67.4646 27.7323 67.4646Z" fill="#2A2826" stroke="#2A2826" stroke-width="0.5"/>
<path d="M19.8884 62.3418C20.3363 62.3418 20.6996 61.9787 20.6996 61.5307C20.6996 61.0827 20.3363 60.7195 19.8884 60.7195C19.4404 60.7195 19.0773 61.0827 19.0773 61.5307C19.0773 61.9786 19.4404 62.3418 19.8884 62.3418Z" fill="#2A2826" stroke="#2A2826" stroke-width="0.5"/>
<path d="M49.2433 62.3721C49.6913 62.3721 50.0545 62.009 50.0545 61.561C50.0545 61.113 49.6913 60.7498 49.2433 60.7498C48.7953 60.7498 48.4321 61.113 48.4321 61.561C48.4321 62.009 48.7953 62.3721 49.2433 62.3721Z" fill="#2A2826" stroke="#2A2826" stroke-width="0.5"/>
<path d="M35.5765 62.3721C36.0245 62.3721 36.3877 62.009 36.3877 61.561C36.3877 61.113 36.0245 60.7498 35.5765 60.7498C35.1285 60.7498 34.7654 61.113 34.7654 61.561C34.7654 62.009 35.1285 62.3721 35.5765 62.3721Z" fill="#2A2826" stroke="#2A2826" stroke-width="0.5"/>
<path d="M42.4066 62.3721C42.8547 62.3721 43.2178 62.009 43.2178 61.561C43.2178 61.113 42.8547 60.7498 42.4066 60.7498C41.9587 60.7498 41.5955 61.113 41.5955 61.561C41.5955 62.009 41.9587 62.3721 42.4066 62.3721Z" fill="#2A2826" stroke="#2A2826" stroke-width="0.5"/>
<path d="M27.7323 62.3721C28.1802 62.3721 28.5434 62.009 28.5434 61.561C28.5434 61.113 28.1802 60.7498 27.7323 60.7498C27.2842 60.7498 26.9211 61.113 26.9211 61.561C26.9211 62.009 27.2842 62.3721 27.7323 62.3721Z" fill="#2A2826" stroke="#2A2826" stroke-width="0.5"/>
<path d="M104.948 88.704C105.396 88.704 105.759 88.3409 105.759 87.8929C105.759 87.4449 105.396 87.0817 104.948 87.0817C104.5 87.0817 104.137 87.4449 104.137 87.8929C104.137 88.3408 104.5 88.704 104.948 88.704Z" fill="#2A2826" stroke="#2A2826" stroke-width="0.5"/>
<path d="M104.948 94.4724C105.396 94.4724 105.759 94.1092 105.759 93.6612C105.759 93.2132 105.396 92.8501 104.948 92.8501C104.5 92.8501 104.137 93.2133 104.137 93.6612C104.137 94.1092 104.5 94.4724 104.948 94.4724Z" fill="#2A2826" stroke="#2A2826" stroke-width="0.5"/>
<path d="M104.948 100.452C105.396 100.452 105.759 100.089 105.759 99.6407C105.759 99.1927 105.396 98.8296 104.948 98.8296C104.5 98.8296 104.137 99.1928 104.137 99.6407C104.137 100.089 104.5 100.452 104.948 100.452Z" fill="#2A2826" stroke="#2A2826" stroke-width="0.5"/>
<path d="M104.948 105.478C105.396 105.478 105.759 105.115 105.759 104.667C105.759 104.219 105.396 103.856 104.948 103.856C104.5 103.856 104.137 104.219 104.137 104.667C104.137 105.115 104.5 105.478 104.948 105.478Z" fill="#2A2826" stroke="#2A2826" stroke-width="0.5"/>
<path d="M104.948 110.818C105.396 110.818 105.759 110.455 105.759 110.007C105.759 109.559 105.396 109.196 104.948 109.196C104.5 109.196 104.137 109.559 104.137 110.007C104.137 110.455 104.5 110.818 104.948 110.818Z" fill="#2A2826" stroke="#2A2826" stroke-width="0.5"/>
<path d="M104.948 115.313C105.396 115.313 105.759 114.95 105.759 114.502C105.759 114.054 105.396 113.691 104.948 113.691C104.5 113.691 104.137 114.054 104.137 114.502C104.137 114.95 104.5 115.313 104.948 115.313Z" fill="#2A2826" stroke="#2A2826" stroke-width="0.5"/>
<path d="M106.939 65.4675C107.387 65.4675 107.75 65.1044 107.75 64.6564C107.75 64.2084 107.387 63.8452 106.939 63.8452C106.491 63.8452 106.128 64.2084 106.128 64.6564C106.128 65.1044 106.491 65.4675 106.939 65.4675Z" fill="#2A2826" stroke="#2A2826" stroke-width="0.5"/>
<path d="M103.832 63.2349C104.28 63.2349 104.643 62.8718 104.643 62.4238C104.643 61.9758 104.28 61.6126 103.832 61.6126C103.384 61.6126 103.021 61.9758 103.021 62.4238C103.021 62.8717 103.384 63.2349 103.832 63.2349Z" fill="#2A2826" stroke="#2A2826" stroke-width="0.5"/>
<path d="M99.4149 62.3601C99.863 62.3601 100.226 61.9969 100.226 61.5489C100.226 61.101 99.863 60.7378 99.4149 60.7378C98.967 60.7378 98.6038 61.1009 98.6038 61.5489C98.6038 61.9969 98.967 62.3601 99.4149 62.3601Z" fill="#2A2826" stroke="#2A2826" stroke-width="0.5"/>
<path d="M94.4672 62.3601C94.9152 62.3601 95.2784 61.9969 95.2784 61.5489C95.2784 61.1009 94.9152 60.7378 94.4672 60.7378C94.0192 60.7378 93.6561 61.101 93.6561 61.5489C93.6561 61.9969 94.0192 62.3601 94.4672 62.3601Z" fill="#2A2826" stroke="#2A2826" stroke-width="0.5"/>
<path d="M51.9281 69.0033C52.376 69.0033 52.7392 68.6402 52.7392 68.1921C52.7392 67.7441 52.376 67.381 51.9281 67.381C51.48 67.381 51.1169 67.7442 51.1169 68.1921C51.1169 68.6401 51.48 69.0033 51.9281 69.0033Z" fill="#2A2826" stroke="#2A2826" stroke-width="0.5"/>
<path d="M58.2397 69.0033C58.6877 69.0033 59.0508 68.6401 59.0508 68.1921C59.0508 67.7442 58.6877 67.381 58.2397 67.381C57.7917 67.381 57.4285 67.7441 57.4285 68.1921C57.4285 68.6402 57.7917 69.0033 58.2397 69.0033Z" fill="#2A2826" stroke="#2A2826" stroke-width="0.5"/>
<path d="M64.5572 69.0033C65.0051 69.0033 65.3683 68.6402 65.3683 68.1921C65.3683 67.7441 65.0051 67.381 64.5572 67.381C64.1092 67.381 63.746 67.7441 63.746 68.1921C63.746 68.6402 64.1092 69.0033 64.5572 69.0033Z" fill="#2A2826" stroke="#2A2826" stroke-width="0.5"/>
<path d="M79.1529 69.0033C79.6009 69.0033 79.9641 68.6402 79.9641 68.1921C79.9641 67.7441 79.6009 67.381 79.1529 67.381C78.7049 67.381 78.3418 67.7442 78.3418 68.1921C78.3418 68.6401 78.7049 69.0033 79.1529 69.0033Z" fill="#2A2826" stroke="#2A2826" stroke-width="0.5"/>
<path d="M85.4645 69.0033C85.9125 69.0033 86.2756 68.6401 86.2756 68.1921C86.2756 67.7442 85.9125 67.381 85.4645 67.381C85.0165 67.381 84.6533 67.7441 84.6533 68.1921C84.6533 68.6402 85.0165 69.0033 85.4645 69.0033Z" fill="#2A2826" stroke="#2A2826" stroke-width="0.5"/>
<path d="M91.782 69.0033C92.23 69.0033 92.5932 68.6402 92.5932 68.1921C92.5932 67.7441 92.23 67.381 91.782 67.381C91.334 67.381 90.9708 67.7441 90.9708 68.1921C90.9708 68.6402 91.334 69.0033 91.782 69.0033Z" fill="#2A2826" stroke="#2A2826" stroke-width="0.5"/>
<path d="M51.9281 60.8153C52.376 60.8153 52.7392 60.4522 52.7392 60.0042C52.7392 59.5562 52.376 59.193 51.9281 59.193C51.48 59.193 51.1169 59.5562 51.1169 60.0042C51.1169 60.4521 51.48 60.8153 51.9281 60.8153Z" fill="#2A2826" stroke="#2A2826" stroke-width="0.5"/>
<path d="M58.2397 60.8153C58.6877 60.8153 59.0508 60.4521 59.0508 60.0042C59.0508 59.5562 58.6877 59.193 58.2397 59.193C57.7917 59.193 57.4285 59.5562 57.4285 60.0042C57.4285 60.4522 57.7917 60.8153 58.2397 60.8153Z" fill="#2A2826" stroke="#2A2826" stroke-width="0.5"/>
<path d="M64.5572 60.8153C65.0051 60.8153 65.3683 60.4522 65.3683 60.0042C65.3683 59.5562 65.0051 59.193 64.5572 59.193C64.1092 59.193 63.746 59.5562 63.746 60.0042C63.746 60.4522 64.1092 60.8153 64.5572 60.8153Z" fill="#2A2826" stroke="#2A2826" stroke-width="0.5"/>
<path d="M79.1529 60.8153C79.6009 60.8153 79.9641 60.4522 79.9641 60.0042C79.9641 59.5562 79.6009 59.193 79.1529 59.193C78.7049 59.193 78.3418 59.5562 78.3418 60.0042C78.3418 60.4521 78.7049 60.8153 79.1529 60.8153Z" fill="#2A2826" stroke="#2A2826" stroke-width="0.5"/>
<path d="M85.4645 60.8153C85.9125 60.8153 86.2756 60.4521 86.2756 60.0042C86.2756 59.5562 85.9125 59.193 85.4645 59.193C85.0165 59.193 84.6533 59.5562 84.6533 60.0042C84.6533 60.4522 85.0165 60.8153 85.4645 60.8153Z" fill="#2A2826" stroke="#2A2826" stroke-width="0.5"/>
<path d="M91.782 60.8153C92.23 60.8153 92.5932 60.4522 92.5932 60.0042C92.5932 59.5562 92.23 59.193 91.782 59.193C91.334 59.193 90.9708 59.5562 90.9708 60.0042C90.9708 60.4522 91.334 60.8153 91.782 60.8153Z" fill="#2A2826" stroke="#2A2826" stroke-width="0.5"/>
<path d="M35.0154 67.4646C35.4634 67.4646 35.8265 67.1014 35.8265 66.6535C35.8265 66.2055 35.4634 65.8423 35.0154 65.8423C34.5674 65.8423 34.2042 66.2055 34.2042 66.6535C34.2042 67.1015 34.5674 67.4646 35.0154 67.4646Z" fill="#2A2826" stroke="#2A2826" stroke-width="0.5"/>
<path d="M19.3273 67.4345C19.7753 67.4345 20.1384 67.0714 20.1384 66.6234C20.1384 66.1754 19.7753 65.8122 19.3273 65.8122C18.8793 65.8122 18.5161 66.1754 18.5161 66.6234C18.5161 67.0714 18.8793 67.4345 19.3273 67.4345Z" fill="#2A2826" stroke="#2A2826" stroke-width="0.5"/>
<path d="M48.6818 67.4646C49.1298 67.4646 49.493 67.1015 49.493 66.6535C49.493 66.2055 49.1298 65.8423 48.6818 65.8423C48.2338 65.8423 47.8707 66.2055 47.8707 66.6535C47.8707 67.1014 48.2338 67.4646 48.6818 67.4646Z" fill="#2A2826" stroke="#2A2826" stroke-width="0.5"/>
<path d="M93.9062 67.4646C94.3542 67.4646 94.7173 67.1014 94.7173 66.6535C94.7173 66.2055 94.3542 65.8423 93.9062 65.8423C93.4582 65.8423 93.095 66.2055 93.095 66.6535C93.095 67.1015 93.4582 67.4646 93.9062 67.4646Z" fill="#2A2826" stroke="#2A2826" stroke-width="0.5"/>
<path d="M98.8537 67.4646C99.3017 67.4646 99.6649 67.1015 99.6649 66.6535C99.6649 66.2055 99.3017 65.8423 98.8537 65.8423C98.4057 65.8423 98.0426 66.2055 98.0426 66.6535C98.0426 67.1014 98.4057 67.4646 98.8537 67.4646Z" fill="#2A2826" stroke="#2A2826" stroke-width="0.5"/>
<path d="M102.999 69.0033C103.447 69.0033 103.81 68.6402 103.81 68.1921C103.81 67.7441 103.447 67.381 102.999 67.381C102.551 67.381 102.188 67.7442 102.188 68.1921C102.188 68.6401 102.551 69.0033 102.999 69.0033Z" fill="#2A2826" stroke="#2A2826" stroke-width="0.5"/>
<path d="M104.833 72.672C105.281 72.672 105.644 72.3088 105.644 71.8608C105.644 71.4128 105.281 71.0497 104.833 71.0497C104.385 71.0497 104.022 71.4128 104.022 71.8608C104.022 72.3088 104.385 72.672 104.833 72.672Z" fill="#2A2826" stroke="#2A2826" stroke-width="0.5"/>
<path d="M104.948 78.018C105.396 78.018 105.759 77.6548 105.759 77.2068C105.759 76.7588 105.396 76.3957 104.948 76.3957C104.5 76.3957 104.137 76.7589 104.137 77.2068C104.137 77.6548 104.5 78.018 104.948 78.018Z" fill="#2A2826" stroke="#2A2826" stroke-width="0.5"/>
<path d="M104.948 83.364C105.396 83.364 105.759 83.0008 105.759 82.5528C105.759 82.1048 105.396 81.7417 104.948 81.7417C104.5 81.7417 104.137 82.1049 104.137 82.5528C104.137 83.0008 104.5 83.364 104.948 83.364Z" fill="#2A2826" stroke="#2A2826" stroke-width="0.5"/>
<path d="M109.992 72.5935C110.44 72.5935 110.803 72.2303 110.803 71.7824C110.803 71.3344 110.44 70.9712 109.992 70.9712C109.544 70.9712 109.181 71.3344 109.181 71.7824C109.181 72.2304 109.544 72.5935 109.992 72.5935Z" fill="#2A2826" stroke="#2A2826" stroke-width="0.5"/>
<path d="M109.437 68.5809C109.885 68.5809 110.248 68.2177 110.248 67.7698C110.248 67.3218 109.885 66.9586 109.437 66.9586C108.989 66.9586 108.626 67.3218 108.626 67.7698C108.626 68.2178 108.989 68.5809 109.437 68.5809Z" fill="#2A2826" stroke="#2A2826" stroke-width="0.5"/>
<path d="M110.107 77.9334C110.555 77.9334 110.918 77.5703 110.918 77.1223C110.918 76.6743 110.555 76.3111 110.107 76.3111C109.659 76.3111 109.296 76.6743 109.296 77.1223C109.296 77.5703 109.659 77.9334 110.107 77.9334Z" fill="#2A2826" stroke="#2A2826" stroke-width="0.5"/>
<path d="M110.107 83.2796C110.555 83.2796 110.918 82.9164 110.918 82.4684C110.918 82.0204 110.555 81.6573 110.107 81.6573C109.659 81.6573 109.296 82.0204 109.296 82.4684C109.296 82.9164 109.659 83.2796 110.107 83.2796Z" fill="#2A2826" stroke="#2A2826" stroke-width="0.5"/>
<path d="M110.107 88.6256C110.555 88.6256 110.918 88.2624 110.918 87.8144C110.918 87.3664 110.555 87.0033 110.107 87.0033C109.659 87.0033 109.296 87.3664 109.296 87.8144C109.296 88.2624 109.659 88.6256 110.107 88.6256Z" fill="#2A2826" stroke="#2A2826" stroke-width="0.5"/>
<path d="M110.107 94.3878C110.555 94.3878 110.918 94.0247 110.918 93.5767C110.918 93.1287 110.555 92.7655 110.107 92.7655C109.659 92.7655 109.296 93.1287 109.296 93.5767C109.296 94.0247 109.659 94.3878 110.107 94.3878Z" fill="#2A2826" stroke="#2A2826" stroke-width="0.5"/>
<path d="M110.107 100.367C110.555 100.367 110.918 100.004 110.918 99.5563C110.918 99.1083 110.555 98.7451 110.107 98.7451C109.659 98.7451 109.296 99.1083 109.296 99.5563C109.296 100.004 109.659 100.367 110.107 100.367Z" fill="#2A2826" stroke="#2A2826" stroke-width="0.5"/>
<path d="M110.107 105.394C110.555 105.394 110.918 105.031 110.918 104.583C110.918 104.135 110.555 103.771 110.107 103.771C109.659 103.771 109.296 104.135 109.296 104.583C109.296 105.031 109.659 105.394 110.107 105.394Z" fill="#2A2826" stroke="#2A2826" stroke-width="0.5"/>
<path d="M110.107 110.74C110.555 110.74 110.918 110.377 110.918 109.928C110.918 109.48 110.555 109.117 110.107 109.117C109.659 109.117 109.296 109.48 109.296 109.928C109.296 110.377 109.659 110.74 110.107 110.74Z" fill="#2A2826" stroke="#2A2826" stroke-width="0.5"/>
<path d="M110.107 115.229C110.555 115.229 110.918 114.866 110.918 114.418C110.918 113.97 110.555 113.607 110.107 113.607C109.659 113.607 109.296 113.97 109.296 114.418C109.296 114.866 109.659 115.229 110.107 115.229Z" fill="#2A2826" stroke="#2A2826" stroke-width="0.5"/>
<path d="M113.317 70.7351C113.765 70.7351 114.128 70.3719 114.128 69.9239C114.128 69.4759 113.765 69.1128 113.317 69.1128C112.869 69.1128 112.506 69.476 112.506 69.9239C112.506 70.3719 112.869 70.7351 113.317 70.7351Z" fill="#2A2826" stroke="#2A2826" stroke-width="0.5"/>
<path d="M113.317 80.8659C113.765 80.8659 114.128 80.5028 114.128 80.0548C114.128 79.6068 113.765 79.2436 113.317 79.2436C112.869 79.2436 112.506 79.6068 112.506 80.0548C112.506 80.5027 112.869 80.8659 113.317 80.8659Z" fill="#2A2826" stroke="#2A2826" stroke-width="0.5"/>
<path d="M113.317 92.6924C113.765 92.6924 114.128 92.3292 114.128 91.8812C114.128 91.4332 113.765 91.0701 113.317 91.0701C112.869 91.0701 112.506 91.4333 112.506 91.8812C112.506 92.3292 112.869 92.6924 113.317 92.6924Z" fill="#2A2826" stroke="#2A2826" stroke-width="0.5"/>
<path d="M113.317 103.065C113.765 103.065 114.128 102.701 114.128 102.253C114.128 101.805 113.765 101.442 113.317 101.442C112.869 101.442 112.506 101.805 112.506 102.253C112.506 102.701 112.869 103.065 113.317 103.065Z" fill="#2A2826" stroke="#2A2826" stroke-width="0.5"/>
<path d="M19.3273 78.4765C19.7753 78.4765 20.1384 78.1133 20.1384 77.6654C20.1384 77.2174 19.7753 76.8542 19.3273 76.8542C18.8793 76.8542 18.5161 77.2174 18.5161 77.6654C18.5161 78.1134 18.8793 78.4765 19.3273 78.4765Z" fill="#2A2826" stroke="#2A2826" stroke-width="0.5"/>
<path d="M48.6818 78.5068C49.1298 78.5068 49.493 78.1436 49.493 77.6956C49.493 77.2476 49.1298 76.8845 48.6818 76.8845C48.2338 76.8845 47.8707 77.2476 47.8707 77.6956C47.8707 78.1436 48.2338 78.5068 48.6818 78.5068Z" fill="#2A2826" stroke="#2A2826" stroke-width="0.5"/>
<path d="M35.0154 78.5068C35.4634 78.5068 35.8265 78.1436 35.8265 77.6956C35.8265 77.2476 35.4634 76.8845 35.0154 76.8845C34.5674 76.8845 34.2042 77.2476 34.2042 77.6956C34.2042 78.1436 34.5674 78.5068 35.0154 78.5068Z" fill="#2A2826" stroke="#2A2826" stroke-width="0.5"/>
<path d="M19.3273 88.6074C19.7753 88.6074 20.1384 88.2442 20.1384 87.7962C20.1384 87.3483 19.7753 86.9851 19.3273 86.9851C18.8793 86.9851 18.5161 87.3482 18.5161 87.7962C18.5161 88.2442 18.8793 88.6074 19.3273 88.6074Z" fill="#2A2826" stroke="#2A2826" stroke-width="0.5"/>
<path d="M48.6818 88.6376C49.1298 88.6376 49.493 88.2745 49.493 87.8265C49.493 87.3785 49.1298 87.0153 48.6818 87.0153C48.2338 87.0153 47.8707 87.3785 47.8707 87.8265C47.8707 88.2744 48.2338 88.6376 48.6818 88.6376Z" fill="#2A2826" stroke="#2A2826" stroke-width="0.5"/>
<path d="M35.0154 88.6376C35.4634 88.6376 35.8265 88.2744 35.8265 87.8265C35.8265 87.3785 35.4634 87.0153 35.0154 87.0153C34.5674 87.0153 34.2042 87.3785 34.2042 87.8265C34.2042 88.2745 34.5674 88.6376 35.0154 88.6376Z" fill="#2A2826" stroke="#2A2826" stroke-width="0.5"/>
<path d="M62.1377 78.7661C62.5857 78.7661 62.9489 78.403 62.9489 77.955C62.9489 77.507 62.5857 77.1438 62.1377 77.1438C61.6898 77.1438 61.3265 77.507 61.3265 77.955C61.3265 78.403 61.6898 78.7661 62.1377 78.7661Z" fill="#2A2826" stroke="#2A2826" stroke-width="0.5"/>
<path d="M91.4926 78.7963C91.9406 78.7963 92.3037 78.4332 92.3037 77.9852C92.3037 77.5372 91.9406 77.174 91.4926 77.174C91.0446 77.174 90.6814 77.5372 90.6814 77.9852C90.6814 78.4332 91.0446 78.7963 91.4926 78.7963Z" fill="#2A2826" stroke="#2A2826" stroke-width="0.5"/>
<path d="M77.8256 78.7963C78.2736 78.7963 78.6368 78.4332 78.6368 77.9852C78.6368 77.5372 78.2736 77.174 77.8256 77.174C77.3776 77.174 77.0144 77.5372 77.0144 77.9852C77.0144 78.4332 77.3776 78.7963 77.8256 78.7963Z" fill="#2A2826" stroke="#2A2826" stroke-width="0.5"/>
<path d="M62.1377 88.897C62.5857 88.897 62.9489 88.5338 62.9489 88.0858C62.9489 87.6378 62.5857 87.2747 62.1377 87.2747C61.6898 87.2747 61.3265 87.6378 61.3265 88.0858C61.3265 88.5338 61.6898 88.897 62.1377 88.897Z" fill="#2A2826" stroke="#2A2826" stroke-width="0.5"/>
<path d="M91.4926 88.9272C91.9406 88.9272 92.3037 88.564 92.3037 88.1161C92.3037 87.6681 91.9406 87.3049 91.4926 87.3049C91.0446 87.3049 90.6814 87.668 90.6814 88.1161C90.6814 88.5641 91.0446 88.9272 91.4926 88.9272Z" fill="#2A2826" stroke="#2A2826" stroke-width="0.5"/>
<path d="M77.8256 88.9272C78.2736 88.9272 78.6368 88.5641 78.6368 88.1161C78.6368 87.668 78.2736 87.3049 77.8256 87.3049C77.3776 87.3049 77.0144 87.668 77.0144 88.1161C77.0144 88.5641 77.3776 88.9272 77.8256 88.9272Z" fill="#2A2826" stroke="#2A2826" stroke-width="0.5"/>
<path d="M91.4926 100.754C91.9406 100.754 92.3037 100.39 92.3037 99.9425C92.3037 99.4945 91.9406 99.1313 91.4926 99.1313C91.0446 99.1313 90.6814 99.4945 90.6814 99.9425C90.6814 100.391 91.0446 100.754 91.4926 100.754Z" fill="#2A2826" stroke="#2A2826" stroke-width="0.5"/>
<path d="M91.4926 111.126C91.9406 111.126 92.3037 110.763 92.3037 110.315C92.3037 109.867 91.9406 109.504 91.4926 109.504C91.0446 109.504 90.6814 109.867 90.6814 110.315C90.6814 110.763 91.0446 111.126 91.4926 111.126Z" fill="#2A2826" stroke="#2A2826" stroke-width="0.5"/>
<path d="M85.4645 122.657C85.9125 122.657 86.2756 122.293 86.2756 121.845C86.2756 121.397 85.9125 121.034 85.4645 121.034C85.0165 121.034 84.6533 121.397 84.6533 121.845C84.6533 122.293 85.0165 122.657 85.4645 122.657Z" fill="#2A2826" stroke="#2A2826" stroke-width="0.5"/>
<path d="M21.7467 32.9388C22.1947 32.9388 22.5578 32.5756 22.5578 32.1277C22.5578 31.6797 22.1947 31.3165 21.7467 31.3165C21.2988 31.3165 20.9355 31.6797 20.9355 32.1277C20.9355 32.5757 21.2988 32.9388 21.7467 32.9388Z" fill="#2A2826" stroke="#2A2826" stroke-width="0.5"/>
<path d="M51.1015 32.969C51.5495 32.969 51.9127 32.6059 51.9127 32.1579C51.9127 31.7099 51.5495 31.3467 51.1015 31.3467C50.6535 31.3467 50.2904 31.7099 50.2904 32.1579C50.2904 32.6059 50.6535 32.969 51.1015 32.969Z" fill="#2A2826" stroke="#2A2826" stroke-width="0.5"/>
<path d="M37.4348 32.969C37.8829 32.969 38.246 32.6059 38.246 32.1579C38.246 31.7099 37.8829 31.3467 37.4348 31.3467C36.9869 31.3467 36.6237 31.7099 36.6237 32.1579C36.6237 32.6059 36.9869 32.969 37.4348 32.969Z" fill="#2A2826" stroke="#2A2826" stroke-width="0.5"/>
<path d="M21.7467 44.7652C22.1947 44.7652 22.5578 44.402 22.5578 43.954C22.5578 43.506 22.1947 43.1429 21.7467 43.1429C21.2988 43.1429 20.9355 43.506 20.9355 43.954C20.9355 44.402 21.2988 44.7652 21.7467 44.7652Z" fill="#2A2826" stroke="#2A2826" stroke-width="0.5"/>
<path d="M51.1015 44.7954C51.5495 44.7954 51.9127 44.4322 51.9127 43.9842C51.9127 43.5362 51.5495 43.1731 51.1015 43.1731C50.6535 43.1731 50.2904 43.5363 50.2904 43.9842C50.2904 44.4322 50.6535 44.7954 51.1015 44.7954Z" fill="#2A2826" stroke="#2A2826" stroke-width="0.5"/>
<path d="M37.4348 44.7954C37.8829 44.7954 38.246 44.4322 38.246 43.9842C38.246 43.5363 37.8829 43.1731 37.4348 43.1731C36.9869 43.1731 36.6237 43.5362 36.6237 43.9842C36.6237 44.4322 36.9869 44.7954 37.4348 44.7954Z" fill="#2A2826" stroke="#2A2826" stroke-width="0.5"/>
<path d="M21.7467 55.1375C22.1947 55.1375 22.5578 54.7743 22.5578 54.3263C22.5578 53.8784 22.1947 53.5152 21.7467 53.5152C21.2988 53.5152 20.9355 53.8783 20.9355 54.3263C20.9355 54.7743 21.2988 55.1375 21.7467 55.1375Z" fill="#2A2826" stroke="#2A2826" stroke-width="0.5"/>
<path d="M51.1015 55.1677C51.5495 55.1677 51.9127 54.8045 51.9127 54.3565C51.9127 53.9085 51.5495 53.5454 51.1015 53.5454C50.6535 53.5454 50.2904 53.9086 50.2904 54.3565C50.2904 54.8045 50.6535 55.1677 51.1015 55.1677Z" fill="#2A2826" stroke="#2A2826" stroke-width="0.5"/>
<path d="M37.4348 55.1677C37.8829 55.1677 38.246 54.8045 38.246 54.3565C38.246 53.9086 37.8829 53.5454 37.4348 53.5454C36.9869 53.5454 36.6237 53.9085 36.6237 54.3565C36.6237 54.8045 36.9869 55.1677 37.4348 55.1677Z" fill="#2A2826" stroke="#2A2826" stroke-width="0.5"/>
<path d="M64.5572 33.2284C65.0051 33.2284 65.3683 32.8653 65.3683 32.4173C65.3683 31.9693 65.0051 31.6061 64.5572 31.6061C64.1092 31.6061 63.746 31.9693 63.746 32.4173C63.746 32.8653 64.1092 33.2284 64.5572 33.2284Z" fill="#2A2826" stroke="#2A2826" stroke-width="0.5"/>
<path d="M64.5572 45.0547C65.0051 45.0547 65.3683 44.6916 65.3683 44.2436C65.3683 43.7956 65.0051 43.4324 64.5572 43.4324C64.1092 43.4324 63.746 43.7956 63.746 44.2436C63.746 44.6916 64.1092 45.0547 64.5572 45.0547Z" fill="#2A2826" stroke="#2A2826" stroke-width="0.5"/>
<path d="M64.5572 55.4272C65.0051 55.4272 65.3683 55.064 65.3683 54.616C65.3683 54.168 65.0051 53.8049 64.5572 53.8049C64.1092 53.8049 63.746 54.168 63.746 54.616C63.746 55.064 64.1092 55.4272 64.5572 55.4272Z" fill="#2A2826" stroke="#2A2826" stroke-width="0.5"/>
<path d="M78.0069 32.969C78.4549 32.969 78.818 32.6059 78.818 32.1579C78.818 31.7099 78.4549 31.3467 78.0069 31.3467C77.5589 31.3467 77.1957 31.7099 77.1957 32.1579C77.1957 32.6059 77.5589 32.969 78.0069 32.969Z" fill="#2A2826" stroke="#2A2826" stroke-width="0.5"/>
<path d="M107.361 32.9991C107.809 32.9991 108.173 32.636 108.173 32.188C108.173 31.74 107.809 31.3768 107.361 31.3768C106.913 31.3768 106.55 31.74 106.55 32.188C106.55 32.6359 106.913 32.9991 107.361 32.9991Z" fill="#2A2826" stroke="#2A2826" stroke-width="0.5"/>
<path d="M93.6947 32.9991C94.1427 32.9991 94.5058 32.6359 94.5058 32.188C94.5058 31.74 94.1427 31.3768 93.6947 31.3768C93.2468 31.3768 92.8835 31.74 92.8835 32.188C92.8835 32.636 93.2468 32.9991 93.6947 32.9991Z" fill="#2A2826" stroke="#2A2826" stroke-width="0.5"/>
<path d="M78.0069 44.7954C78.4549 44.7954 78.818 44.4322 78.818 43.9842C78.818 43.5363 78.4549 43.1731 78.0069 43.1731C77.5589 43.1731 77.1957 43.5362 77.1957 43.9842C77.1957 44.4322 77.5589 44.7954 78.0069 44.7954Z" fill="#2A2826" stroke="#2A2826" stroke-width="0.5"/>
<path d="M107.361 44.8256C107.809 44.8256 108.173 44.4624 108.173 44.0144C108.173 43.5664 107.809 43.2033 107.361 43.2033C106.913 43.2033 106.55 43.5665 106.55 44.0144C106.55 44.4624 106.913 44.8256 107.361 44.8256Z" fill="#2A2826" stroke="#2A2826" stroke-width="0.5"/>
<path d="M93.6947 44.8256C94.1427 44.8256 94.5058 44.4624 94.5058 44.0144C94.5058 43.5665 94.1427 43.2033 93.6947 43.2033C93.2468 43.2033 92.8835 43.5664 92.8835 44.0144C92.8835 44.4624 93.2468 44.8256 93.6947 44.8256Z" fill="#2A2826" stroke="#2A2826" stroke-width="0.5"/>
<path d="M78.0069 55.1616C78.4549 55.1616 78.818 54.7984 78.818 54.3505C78.818 53.9025 78.4549 53.5393 78.0069 53.5393C77.5589 53.5393 77.1957 53.9025 77.1957 54.3505C77.1957 54.7985 77.5589 55.1616 78.0069 55.1616Z" fill="#2A2826" stroke="#2A2826" stroke-width="0.5"/>
<path d="M107.361 55.1918C107.809 55.1918 108.173 54.8287 108.173 54.3807C108.173 53.9327 107.809 53.5695 107.361 53.5695C106.913 53.5695 106.55 53.9327 106.55 54.3807C106.55 54.8286 106.913 55.1918 107.361 55.1918Z" fill="#2A2826" stroke="#2A2826" stroke-width="0.5"/>
<path d="M93.6947 55.1918C94.1427 55.1918 94.5058 54.8286 94.5058 54.3807C94.5058 53.9327 94.1427 53.5695 93.6947 53.5695C93.2468 53.5695 92.8835 53.9327 92.8835 54.3807C92.8835 54.8287 93.2468 55.1918 93.6947 55.1918Z" fill="#2A2826" stroke="#2A2826" stroke-width="0.5"/>
<path d="M120.817 33.2527C121.265 33.2527 121.628 32.8895 121.628 32.4415C121.628 31.9935 121.265 31.6304 120.817 31.6304C120.369 31.6304 120.006 31.9935 120.006 32.4415C120.006 32.8895 120.369 33.2527 120.817 33.2527Z" fill="#2A2826" stroke="#2A2826" stroke-width="0.5"/>
<path d="M120.817 45.0851C121.265 45.0851 121.628 44.7219 121.628 44.2739C121.628 43.8259 121.265 43.4628 120.817 43.4628C120.369 43.4628 120.006 43.8259 120.006 44.2739C120.006 44.7219 120.369 45.0851 120.817 45.0851Z" fill="#2A2826" stroke="#2A2826" stroke-width="0.5"/>
<path d="M120.817 55.4512C121.265 55.4512 121.628 55.088 121.628 54.64C121.628 54.192 121.265 53.8289 120.817 53.8289C120.369 53.8289 120.006 54.192 120.006 54.64C120.006 55.088 120.369 55.4512 120.817 55.4512Z" fill="#2A2826" stroke="#2A2826" stroke-width="0.5"/>
<path d="M132.885 33.2948C133.333 33.2948 133.696 32.9317 133.696 32.4837C133.696 32.0357 133.333 31.6725 132.885 31.6725C132.437 31.6725 132.074 32.0357 132.074 32.4837C132.074 32.9317 132.437 33.2948 132.885 33.2948Z" fill="#2A2826" stroke="#2A2826" stroke-width="0.5"/>
<path d="M132.885 45.1272C133.333 45.1272 133.696 44.7641 133.696 44.3161C133.696 43.8681 133.333 43.5049 132.885 43.5049C132.437 43.5049 132.074 43.8681 132.074 44.3161C132.074 44.7641 132.437 45.1272 132.885 45.1272Z" fill="#2A2826" stroke="#2A2826" stroke-width="0.5"/>
<path d="M132.885 55.4935C133.333 55.4935 133.696 55.1303 133.696 54.6823C133.696 54.2343 133.333 53.8712 132.885 53.8712C132.437 53.8712 132.074 54.2343 132.074 54.6823C132.074 55.1303 132.437 55.4935 132.885 55.4935Z" fill="#2A2826" stroke="#2A2826" stroke-width="0.5"/>
<path d="M78.1998 96.4066C73.9886 96.4066 70.582 101.937 70.582 108.762V108.79C70.582 115.616 67.1698 121.145 62.9642 121.145C58.7587 121.145 55.3464 115.616 55.3464 108.79C55.3464 101.965 51.9342 96.4346 47.7286 96.4346C43.5231 96.4346 40.1109 101.965 40.1109 108.79C40.1109 115.616 36.6987 121.145 32.4931 121.145C28.2875 121.145 24.8753 115.616 24.8753 108.79C24.8753 101.965 21.4632 96.4346 17.2576 96.4346" stroke="#2A2826" stroke-width="2" stroke-miterlimit="10" stroke-linecap="round"/>
</svg>
