<svg width="153" height="153" viewBox="0 0 153 153" fill="none" xmlns="http://www.w3.org/2000/svg">
<path d="M143.848 36.23H146.463C147.725 36.23 148.749 37.2543 148.749 38.5154V113.632C148.749 114.893 147.725 115.917 146.463 115.917H136.061C134.585 115.917 133.379 117.123 133.379 118.599V132.02C133.379 133.281 132.354 134.306 131.093 134.306H80.6594" stroke="#FA0000" stroke-width="1.3" stroke-miterlimit="10" stroke-linecap="round"/>
<path d="M138.941 31.4113H141.557C142.818 31.4113 143.842 32.4356 143.842 33.6967V108.819C143.842 110.08 142.818 111.104 141.557 111.104H131.154C129.678 111.104 128.472 112.31 128.472 113.786V127.207C128.472 128.468 127.447 129.492 126.186 129.492H66.2308" stroke="#FA0000" stroke-width="1.3" stroke-miterlimit="10" stroke-linecap="round"/>
<path d="M138.941 29.2854V104.407C138.941 105.669 137.917 106.693 136.655 106.693H126.253C124.777 106.693 123.571 107.899 123.571 109.375V122.796C123.571 124.057 122.546 125.081 121.285 125.081H56.3787C55.6077 125.081 54.9799 124.453 54.9799 123.682V116.969C54.9799 113.979 52.5568 111.556 49.5665 111.556C46.5761 111.556 44.153 113.979 44.153 116.969V123.682C44.153 124.453 43.5252 125.081 42.7542 125.081H23.6447C22.3836 125.081 21.3592 124.057 21.3592 122.796V109.375C21.3592 107.899 20.1532 106.693 18.6773 106.693H8.28544C7.02432 106.693 6 105.669 6 104.407V29.2854C6 28.0243 7.02432 27 8.28544 27H136.655C137.917 27 138.941 28.0243 138.941 29.2854Z" fill="white" stroke="#FA0000" stroke-width="1.3" stroke-miterlimit="10"/>
<path d="M26.6955 107.238H24.2889V125.081H26.6955V107.238Z" fill="#FA0000"/>
<path d="M31.2994 107.238H28.8928V125.081H31.2994V107.238Z" fill="#FA0000"/>
<path d="M36.3053 107.238H33.8987V125.081H36.3053V107.238Z" fill="#FA0000"/>
<path d="M41.1074 107.238H38.7008V125.081H41.1074V107.238Z" fill="#FA0000"/>
<path d="M61.3293 107.238H58.9227V125.081H61.3293V107.238Z" fill="#FA0000"/>
<path d="M66.2307 107.238H63.8241V125.081H66.2307V107.238Z" fill="#FA0000"/>
<path d="M71.1375 107.238H68.731V125.081H71.1375V107.238Z" fill="#FA0000"/>
<path d="M76.0389 107.238H73.6323V125.081H76.0389V107.238Z" fill="#FA0000"/>
<path d="M80.9455 107.238H78.5389V125.081H80.9455V107.238Z" fill="#FA0000"/>
<path d="M85.847 107.238H83.4404V125.081H85.847V107.238Z" fill="#FA0000"/>
<path d="M90.7538 107.238H88.3472V125.081H90.7538V107.238Z" fill="#FA0000"/>
<path d="M95.655 107.238H93.2484V125.081H95.655V107.238Z" fill="#FA0000"/>
<path d="M100.562 107.238H98.1552V125.081H100.562V107.238Z" fill="#FA0000"/>
<path d="M105.463 107.238H103.057V125.081H105.463V107.238Z" fill="#FA0000"/>
<path d="M110.37 107.238H107.963V125.081H110.37V107.238Z" fill="#FA0000"/>
<path d="M115.271 107.238H112.865V125.081H115.271V107.238Z" fill="#FA0000"/>
<path d="M120.178 107.238H117.771V125.081H120.178V107.238Z" fill="#FA0000"/>
<path d="M52.9644 55.3834H39.3123C38.9747 55.3834 38.701 55.6571 38.701 55.9947V58.3021C38.701 58.6397 38.9747 58.9134 39.3123 58.9134H52.9644C53.302 58.9134 53.5757 58.6397 53.5757 58.3021V55.9947C53.5757 55.6571 53.302 55.3834 52.9644 55.3834Z" fill="#FA0000"/>
<path d="M52.9644 61.1492H39.3123C38.9747 61.1492 38.701 61.4229 38.701 61.7605V64.068C38.701 64.4056 38.9747 64.6792 39.3123 64.6792H52.9644C53.302 64.6792 53.5757 64.4056 53.5757 64.068V61.7605C53.5757 61.4229 53.302 61.1492 52.9644 61.1492Z" fill="#FA0000"/>
<path d="M52.766 66.9152H39.114C38.7764 66.9152 38.5027 67.1889 38.5027 67.5265V69.834C38.5027 70.1716 38.7764 70.4453 39.114 70.4453H52.766C53.1036 70.4453 53.3773 70.1716 53.3773 69.834V67.5265C53.3773 67.1889 53.1036 66.9152 52.766 66.9152Z" fill="#FA0000"/>
<path d="M52.766 72.6867H39.114C38.7764 72.6867 38.5027 72.9604 38.5027 73.298V75.6054C38.5027 75.943 38.7764 76.2167 39.114 76.2167H52.766C53.1036 76.2167 53.3773 75.943 53.3773 75.6054V73.298C53.3773 72.9604 53.1036 72.6867 52.766 72.6867Z" fill="#FA0000"/>
<path d="M87.4828 55.3834H73.8308C73.4932 55.3834 73.2195 55.6571 73.2195 55.9947V58.3021C73.2195 58.6397 73.4932 58.9134 73.8308 58.9134H87.4828C87.8204 58.9134 88.0941 58.6397 88.0941 58.3021V55.9947C88.0941 55.6571 87.8204 55.3834 87.4828 55.3834Z" fill="#FA0000"/>
<path d="M87.4828 61.1492H73.8308C73.4932 61.1492 73.2195 61.4229 73.2195 61.7605V64.068C73.2195 64.4056 73.4932 64.6792 73.8308 64.6792H87.4828C87.8204 64.6792 88.0941 64.4056 88.0941 64.068V61.7605C88.0941 61.4229 87.8204 61.1492 87.4828 61.1492Z" fill="#FA0000"/>
<path d="M87.2842 66.9152H73.6322C73.2946 66.9152 73.0209 67.1889 73.0209 67.5265V69.834C73.0209 70.1716 73.2946 70.4453 73.6322 70.4453H87.2842C87.6218 70.4453 87.8955 70.1716 87.8955 69.834V67.5265C87.8955 67.1889 87.6218 66.9152 87.2842 66.9152Z" fill="#FA0000"/>
<path d="M87.2842 72.6867H73.6322C73.2946 72.6867 73.0209 72.9604 73.0209 73.298V75.6054C73.0209 75.943 73.2946 76.2167 73.6322 76.2167H87.2842C87.6218 76.2167 87.8955 75.943 87.8955 75.6054V73.298C87.8955 72.9604 87.6218 72.6867 87.2842 72.6867Z" fill="#FA0000"/>
<path d="M45.9373 57.1457H33.2655C28.5019 57.1457 25.4895 59.4917 25.495 64.9217V116.16" stroke="#FA0000" stroke-width="1.3" stroke-miterlimit="10"/>
<path d="M30.0989 116.16V69.1236C30.0989 65.511 32.2136 62.9171 36.3054 62.9171H46.141" stroke="#FA0000" stroke-width="1.3" stroke-miterlimit="10"/>
<path d="M35.0991 116.159V70.5553C35.1101 69.3933 35.6719 68.7766 36.7623 68.6829H46.1353" stroke="#FA0000" stroke-width="1.3" stroke-miterlimit="10"/>
<path d="M80.6593 57.1457H100.562" stroke="#FA0000" stroke-width="1.3" stroke-miterlimit="10" stroke-linecap="round"/>
<path d="M80.6593 62.9171H107.137" stroke="#FA0000" stroke-width="1.3" stroke-miterlimit="10" stroke-linecap="round"/>
<path d="M80.4609 68.6829H114.071" stroke="#FA0000" stroke-width="1.3" stroke-miterlimit="10" stroke-linecap="round"/>
<path d="M80.4609 74.449H120.178" stroke="#FA0000" stroke-width="1.3" stroke-miterlimit="10" stroke-linecap="round"/>
<path d="M109.296 65.076C110.488 65.076 111.455 64.1095 111.455 62.9172C111.455 61.7249 110.488 60.7584 109.296 60.7584C108.104 60.7584 107.137 61.7249 107.137 62.9172C107.137 64.1095 108.104 65.076 109.296 65.076Z" fill="white" stroke="#FA0000" stroke-width="1.3" stroke-miterlimit="10" stroke-linecap="round"/>
<path d="M122.469 76.6078C123.661 76.6078 124.628 75.6413 124.628 74.4491C124.628 73.2568 123.661 72.2903 122.469 72.2903C121.277 72.2903 120.31 73.2568 120.31 74.4491C120.31 75.6413 121.277 76.6078 122.469 76.6078Z" fill="white" stroke="#FA0000" stroke-width="1.3" stroke-miterlimit="10" stroke-linecap="round"/>
<path d="M74.8385 103.581C76.0307 103.581 76.9972 102.615 76.9972 101.423C76.9972 100.23 76.0307 99.2638 74.8385 99.2638C73.6462 99.2638 72.6797 100.23 72.6797 101.423C72.6797 102.615 73.6462 103.581 74.8385 103.581Z" fill="white" stroke="#FA0000" stroke-width="1.3" stroke-miterlimit="10" stroke-linecap="round"/>
<path d="M74.8384 103.581V116.16" stroke="#FA0000" stroke-width="1.3" stroke-miterlimit="10" stroke-linecap="round"/>
</svg>
