<svg width="153" height="146" viewBox="0 0 153 146" fill="none" xmlns="http://www.w3.org/2000/svg">
<path d="M147.088 106.136V31.7878C147.088 30.5397 146.074 29.526 144.826 29.526H142.236V98.407C142.236 101.296 139.898 103.634 137.009 103.634H127.763C127.352 103.634 127.018 103.968 127.018 104.378V116.385C127.018 119.397 124.575 121.84 121.563 121.84H65.415L79.6952 126.604H142.506C145.031 126.604 147.082 124.553 147.082 122.028V106.142L147.088 106.136Z" fill="#F3C8C8" stroke="#FA0000" stroke-width="1.3" stroke-miterlimit="10"/>
<path d="M24.4678 118.066H43.3713C44.1389 118.066 44.7601 117.445 44.7601 116.678V115.769C44.7601 115.429 45.0355 115.16 45.3695 115.16H54.8622C55.2021 115.16 55.4716 115.435 55.4716 115.769V116.678C55.4716 117.445 56.0928 118.066 56.8604 118.066H121.095C122.343 118.066 123.357 117.053 123.357 115.804V102.52C123.357 101.061 124.552 99.866 126.011 99.866H136.307C137.555 99.866 138.568 98.8523 138.568 97.6042V23.2619C138.568 22.0137 137.555 21 136.307 21H9.26188C8.01376 21 7 22.0137 7 23.2619V97.6042L24.462 118.066H24.4678Z" fill="white" stroke="#FA0000" stroke-width="1.3" stroke-miterlimit="10"/>
<path d="M53.4444 49.0858H40.0198C39.6606 49.0858 39.3694 49.377 39.3694 49.7362V51.9277C39.3694 52.2869 39.6606 52.5781 40.0198 52.5781H53.4444C53.8036 52.5781 54.0948 52.2869 54.0948 51.9277V49.7362C54.0948 49.377 53.8036 49.0858 53.4444 49.0858Z" fill="#FA0000"/>
<path d="M53.4444 54.799H40.0198C39.6606 54.799 39.3694 55.0902 39.3694 55.4495V57.641C39.3694 58.0002 39.6606 58.2914 40.0198 58.2914H53.4444C53.8036 58.2914 54.0948 58.0002 54.0948 57.641V55.4495C54.0948 55.0902 53.8036 54.799 53.4444 54.799Z" fill="#FA0000"/>
<path d="M53.2449 60.5063H39.8202C39.461 60.5063 39.1698 60.7975 39.1698 61.1567V63.3483C39.1698 63.7075 39.461 63.9987 39.8202 63.9987H53.2449C53.6041 63.9987 53.8953 63.7075 53.8953 63.3483V61.1567C53.8953 60.7975 53.6041 60.5063 53.2449 60.5063Z" fill="#FA0000"/>
<path d="M53.2449 66.2138H39.8202C39.461 66.2138 39.1698 66.505 39.1698 66.8642V69.0557C39.1698 69.415 39.461 69.7062 39.8202 69.7062H53.2449C53.6041 69.7062 53.8953 69.415 53.8953 69.0557V66.8642C53.8953 66.505 53.6041 66.2138 53.2449 66.2138Z" fill="#FA0000"/>
<path d="M87.6065 49.0858H74.1819C73.8227 49.0858 73.5315 49.377 73.5315 49.7362V51.9277C73.5315 52.2869 73.8227 52.5781 74.1819 52.5781H87.6065C87.9657 52.5781 88.257 52.2869 88.257 51.9277V49.7362C88.257 49.377 87.9657 49.0858 87.6065 49.0858Z" fill="#FA0000"/>
<path d="M87.6065 54.799H74.1819C73.8227 54.799 73.5315 55.0902 73.5315 55.4495V57.641C73.5315 58.0002 73.8227 58.2914 74.1819 58.2914H87.6065C87.9657 58.2914 88.257 58.0002 88.257 57.641V55.4495C88.257 55.0902 87.9657 54.799 87.6065 54.799Z" fill="#FA0000"/>
<path d="M87.407 60.5063H73.9823C73.6231 60.5063 73.3319 60.7975 73.3319 61.1567V63.3483C73.3319 63.7075 73.6231 63.9987 73.9823 63.9987H87.407C87.7662 63.9987 88.0574 63.7075 88.0574 63.3483V61.1567C88.0574 60.7975 87.7662 60.5063 87.407 60.5063Z" fill="#FA0000"/>
<path d="M87.407 66.2138H73.9823C73.6231 66.2138 73.3319 66.505 73.3319 66.8642V69.0557C73.3319 69.415 73.6231 69.7062 73.9823 69.7062H87.407C87.7662 69.7062 88.0574 69.415 88.0574 69.0557V66.8642C88.0574 66.505 87.7662 66.2138 87.407 66.2138Z" fill="#FA0000"/>
<path d="M46.5298 50.8319H33.99C29.2729 50.8319 26.2961 53.1583 26.2961 58.5258V89.5881C26.2961 92.3832 24.0285 94.6509 21.2334 94.6509H17.4304" stroke="#FA0000" stroke-width="1.3" stroke-miterlimit="10" stroke-linecap="round"/>
<path d="M30.849 109.242V62.6862C30.849 59.1118 32.9468 56.5393 36.9958 56.5393H46.7289" stroke="#FA0000" stroke-width="1.3" stroke-miterlimit="10" stroke-linecap="round"/>
<path d="M80.8906 50.8318H100.591" stroke="#FA0000" stroke-width="1.3" stroke-miterlimit="10" stroke-linecap="round"/>
<path d="M80.8906 56.5452H107.101" stroke="#FA0000" stroke-width="1.3" stroke-miterlimit="10" stroke-linecap="round"/>
<path d="M80.6917 62.2524H113.957" stroke="#FA0000" stroke-width="1.3" stroke-miterlimit="10" stroke-linecap="round"/>
<path d="M80.6917 67.9597H120.005" stroke="#FA0000" stroke-width="1.3" stroke-miterlimit="10" stroke-linecap="round"/>
<path d="M75.1305 96.7899V109.242" stroke="#FA0000" stroke-width="1.3" stroke-miterlimit="10" stroke-linecap="round"/>
<path d="M109.234 58.6841C110.415 58.6841 111.373 57.7265 111.373 56.5453C111.373 55.3641 110.415 54.4065 109.234 54.4065C108.053 54.4065 107.095 55.3641 107.095 56.5453C107.095 57.7265 108.053 58.6841 109.234 58.6841Z" fill="white" stroke="#FA0000" stroke-width="1.3" stroke-miterlimit="10" stroke-linecap="round"/>
<path d="M122.273 70.0989C123.454 70.0989 124.411 69.1413 124.411 67.9601C124.411 66.7788 123.454 65.8213 122.273 65.8213C121.091 65.8213 120.134 66.7788 120.134 67.9601C120.134 69.1413 121.091 70.0989 122.273 70.0989Z" fill="white" stroke="#FA0000" stroke-width="1.3" stroke-miterlimit="10" stroke-linecap="round"/>
<path d="M75.1306 96.7901C76.3119 96.7901 77.2694 95.8325 77.2694 94.6512C77.2694 93.47 76.3119 92.5125 75.1306 92.5125C73.9494 92.5125 72.9918 93.47 72.9918 94.6512C72.9918 95.8325 73.9494 96.7901 75.1306 96.7901Z" fill="white" stroke="#FA0000" stroke-width="1.3" stroke-miterlimit="10" stroke-linecap="round"/>
<path d="M75.1306 111.381C76.3119 111.381 77.2694 110.423 77.2694 109.242C77.2694 108.061 76.3119 107.103 75.1306 107.103C73.9494 107.103 72.9918 108.061 72.9918 109.242C72.9918 110.423 73.9494 111.381 75.1306 111.381Z" fill="white" stroke="#FA0000" stroke-width="1.3" stroke-miterlimit="10" stroke-linecap="round"/>
<path d="M30.8486 111.381C32.0298 111.381 32.9874 110.423 32.9874 109.242C32.9874 108.061 32.0298 107.103 30.8486 107.103C29.6674 107.103 28.7098 108.061 28.7098 109.242C28.7098 110.423 29.6674 111.381 30.8486 111.381Z" fill="white" stroke="#FA0000" stroke-width="1.3" stroke-miterlimit="10" stroke-linecap="round"/>
<path d="M17.4298 96.7901C18.6111 96.7901 19.5686 95.8325 19.5686 94.6512C19.5686 93.47 18.6111 92.5125 17.4298 92.5125C16.2486 92.5125 15.291 93.47 15.291 94.6512C15.291 95.8325 16.2486 96.7901 17.4298 96.7901Z" fill="white" stroke="#FA0000" stroke-width="1.3" stroke-miterlimit="10" stroke-linecap="round"/>
<path d="M137.478 118.066C139.083 118.066 140.384 116.765 140.384 115.16C140.384 113.555 139.083 112.253 137.478 112.253C135.873 112.253 134.572 113.555 134.572 115.16C134.572 116.765 135.873 118.066 137.478 118.066Z" fill="white"/>
</svg>
