<svg width="153" height="153" viewBox="0 0 153 153" fill="none" xmlns="http://www.w3.org/2000/svg">
<path d="M145.555 107.016L144.182 22.6292C144.868 22.6292 150.367 29.7278 150.367 30.6646V126.171C150.367 128.835 148.202 131 145.537 131H12.6472C11.3846 131 3.85534 124.629 3.66333 123.785L121.78 126.171L145.549 107.016H145.555Z" fill="#B6B8B7" stroke="#2A2826" stroke-width="1.3" stroke-miterlimit="10"/>
<path d="M145.543 103.996V25.8294C145.543 23.1587 143.379 21 140.714 21H7.82942C5.16452 21 3 23.1645 3 25.8294V121.341C3 124.006 5.16452 126.171 7.82942 126.171H140.72C143.385 126.171 145.549 124.006 145.549 121.341V104.002L145.543 103.996Z" fill="white" stroke="#2A2826" stroke-width="1.3" stroke-miterlimit="10"/>
<path d="M125.882 43.0407V61.5263C125.882 63.0392 124.655 64.2843 123.142 64.2843H113.739C112.139 64.3018 110.83 65.576 110.812 67.182L110.707 79.6977C110.69 81.1989 109.462 82.4208 107.949 82.4208H17.6104V46.9915C17.6104 44.8096 19.3501 43.0407 21.4913 43.0407H125.876H125.882Z" fill="#EEEFEF" stroke="#2A2826" stroke-width="1.3" stroke-miterlimit="10"/>
<path d="M125.882 42.2552V43.0407H21.4971C19.35 43.0407 17.6161 44.8096 17.6161 46.9915V82.4208H15.2828C13.1358 82.4208 11.4019 80.6519 11.4019 78.47V42.2552C11.4019 40.0733 13.1416 38.3044 15.2828 38.3044H122.019C124.148 38.3044 125.882 40.0733 125.882 42.2552Z" fill="#B6B8B7" stroke="#2A2826" stroke-width="1.3" stroke-miterlimit="10"/>
<path d="M60.3711 48.8418V75.1068H25.2735L23.301 72.9598L58.3986 46.689L60.3711 48.8418Z" fill="#2A2826"/>
<path d="M58.3986 46.689H23.301V72.954H58.3986V46.689Z" fill="#2A2826"/>
<path d="M29.5677 49.7379C27.8978 43.5237 26.8737 37.3152 26.5013 31.101" stroke="#A7A7A7" stroke-width="1.3" stroke-miterlimit="10" stroke-linecap="round"/>
<path d="M37.8009 49.7786C36.8816 43.6982 36.3754 37.4665 36.2241 31.101" stroke="#A7A7A7" stroke-width="1.3" stroke-miterlimit="10" stroke-linecap="round"/>
<path d="M44.3352 49.895C45.2429 43.7506 45.7666 37.484 45.9469 31.101" stroke="#A7A7A7" stroke-width="1.3" stroke-miterlimit="10" stroke-linecap="round"/>
<path d="M50.4968 50.4303C52.6962 44.3208 54.0694 37.8564 54.7444 31.101" stroke="#A7A7A7" stroke-width="1.3" stroke-miterlimit="10" stroke-linecap="round"/>
<path d="M29.5677 69.9109C27.8978 76.1251 26.8737 82.3336 26.5013 88.5478" stroke="#A7A7A7" stroke-width="1.3" stroke-miterlimit="10" stroke-linecap="round"/>
<path d="M37.8009 69.8701C36.8816 75.9505 36.3754 82.1822 36.2241 88.5477" stroke="#A7A7A7" stroke-width="1.3" stroke-miterlimit="10" stroke-linecap="round"/>
<path d="M44.3352 69.7538C45.2429 75.8982 45.7666 82.1648 45.9469 88.5478" stroke="#A7A7A7" stroke-width="1.3" stroke-miterlimit="10" stroke-linecap="round"/>
<path d="M50.4968 69.2185C52.6962 75.328 54.0694 81.7924 54.7444 88.5478V98.2939L60.3011 103.851H88.8354" stroke="#A7A7A7" stroke-width="1.3" stroke-miterlimit="10" stroke-linecap="round"/>
<path d="M74.2717 54.7884H97.7787L103.405 60.4149V68.3689" stroke="#2A2826" stroke-width="1.3" stroke-miterlimit="10" stroke-linecap="round"/>
<path d="M74.2717 59.1698H95.7073L99.3439 62.8064V68.3689" stroke="#2A2826" stroke-width="1.3" stroke-miterlimit="10" stroke-linecap="round"/>
<path d="M88.8356 106.446C90.2688 106.446 91.4306 105.284 91.4306 103.851C91.4306 102.417 90.2688 101.255 88.8356 101.255C87.4023 101.255 86.2405 102.417 86.2405 103.851C86.2405 105.284 87.4023 106.446 88.8356 106.446Z" fill="white" stroke="#A7A7A7" stroke-width="1.3" stroke-miterlimit="10" stroke-linecap="round"/>
<path d="M27.7988 26.9874H25.2096C25.0328 26.9874 24.8895 27.1306 24.8895 27.3074V34.8948C24.8895 35.0715 25.0328 35.2148 25.2096 35.2148H27.7988C27.9756 35.2148 28.1188 35.0715 28.1188 34.8948V27.3074C28.1188 27.1306 27.9756 26.9874 27.7988 26.9874Z" fill="#2A2826"/>
<path d="M37.5216 26.9874H34.9323C34.7556 26.9874 34.6123 27.1307 34.6123 27.3074V34.8949C34.6123 35.0716 34.7556 35.2149 34.9323 35.2149H37.5216C37.6983 35.2149 37.8416 35.0716 37.8416 34.8949V27.3074C37.8416 27.1307 37.6983 26.9874 37.5216 26.9874Z" fill="#2A2826"/>
<path d="M47.2444 26.9874H44.6551C44.4784 26.9874 44.3351 27.1307 44.3351 27.3074V34.8949C44.3351 35.0716 44.4784 35.2149 44.6551 35.2149H47.2444C47.4211 35.2149 47.5644 35.0716 47.5644 34.8949V27.3074C47.5644 27.1307 47.4211 26.9874 47.2444 26.9874Z" fill="#2A2826"/>
<path d="M56.0364 26.9874H53.4471C53.2704 26.9874 53.1271 27.1307 53.1271 27.3074V34.8949C53.1271 35.0716 53.2704 35.2149 53.4471 35.2149H56.0364C56.2131 35.2149 56.3564 35.0716 56.3564 34.8949V27.3074C56.3564 27.1307 56.2131 26.9874 56.0364 26.9874Z" fill="#2A2826"/>
<path d="M27.7988 84.4341H25.2096C25.0328 84.4341 24.8895 84.5773 24.8895 84.7541V92.3415C24.8895 92.5182 25.0328 92.6615 25.2096 92.6615H27.7988C27.9756 92.6615 28.1188 92.5182 28.1188 92.3415V84.7541C28.1188 84.5773 27.9756 84.4341 27.7988 84.4341Z" fill="#2A2826"/>
<path d="M37.5216 84.4341H34.9323C34.7556 84.4341 34.6123 84.5773 34.6123 84.7541V92.3415C34.6123 92.5182 34.7556 92.6615 34.9323 92.6615H37.5216C37.6983 92.6615 37.8416 92.5182 37.8416 92.3415V84.7541C37.8416 84.5773 37.6983 84.4341 37.5216 84.4341Z" fill="#2A2826"/>
<path d="M47.2444 84.4341H44.6551C44.4784 84.4341 44.3351 84.5773 44.3351 84.7541V92.3415C44.3351 92.5182 44.4784 92.6615 44.6551 92.6615H47.2444C47.4211 92.6615 47.5644 92.5182 47.5644 92.3415V84.7541C47.5644 84.5773 47.4211 84.4341 47.2444 84.4341Z" fill="#2A2826"/>
<path d="M56.0364 84.4341H53.4471C53.2704 84.4341 53.1271 84.5773 53.1271 84.7541V92.3415C53.1271 92.5182 53.2704 92.6615 53.4471 92.6615H56.0364C56.2131 92.6615 56.3564 92.5182 56.3564 92.3415V84.7541C56.3564 84.5773 56.2131 84.4341 56.0364 84.4341Z" fill="#2A2826"/>
</svg>
