<svg width="462" height="389" viewBox="0 0 462 389" fill="none" xmlns="http://www.w3.org/2000/svg">
<path opacity="0.04" d="M35.2254 214.839L29.9956 209.388L219.476 27.2645C238.396 9.06493 262.825 0 287.161 0C312.787 0 338.436 10.0528 357.6 29.9956L539.735 219.476C557.935 238.396 567 262.837 567 287.161C567 312.787 556.947 338.447 537.004 357.6L347.524 539.735C328.604 557.935 304.163 567 279.839 567C254.213 567 228.564 556.947 209.4 537.004L27.2645 347.524C9.06493 328.592 0 304.163 0 279.839C0 254.213 10.0528 228.564 29.9956 209.4L35.2254 214.851L40.4552 220.301C23.5688 236.537 15.1082 258.141 15.0966 279.851C15.0966 300.468 22.7321 321.038 38.1425 337.064L220.278 526.545C236.513 543.431 258.118 551.892 279.828 551.903C300.444 551.903 321.015 544.268 337.041 528.858L526.522 346.722C543.408 330.487 551.869 308.882 551.88 287.172C551.88 266.556 544.245 245.985 528.834 229.959L346.71 40.4668C330.475 23.5805 308.87 15.1198 287.161 15.1082C266.544 15.1082 245.973 22.7437 229.947 38.1541L40.4668 220.29L35.237 214.839H35.2254Z" fill="url(#paint0_linear_586_7985)"/>
<defs>
<linearGradient id="paint0_linear_586_7985" x1="649" y1="120" x2="94.5" y2="82.5" gradientUnits="userSpaceOnUse">
<stop stop-color="#EDEDED" stop-opacity="0"/>
<stop offset="0.371098" stop-color="#EDEDED" stop-opacity="0"/>
<stop offset="1" stop-color="#B6B7B7"/>
</linearGradient>
</defs>
</svg>
