<svg width="203" height="34" viewBox="0 0 203 34" fill="none" xmlns="http://www.w3.org/2000/svg">
<g clip-path="url(#clip0_901_2062)">
<path d="M18.7996 27.9958H0V18.7138C0 8.65617 8.41852 0.5 18.7996 0.5V27.9958Z" fill="#FA0000"/>
<path d="M41.008 27.9958H22.2084V18.7138C22.2084 8.65617 30.6269 0.5 41.008 0.5V27.9958Z" fill="#FA0000"/>
<path d="M63.2164 27.9958H44.4167V18.7138C44.4167 8.65617 52.8353 0.5 63.2164 0.5V27.9958Z" fill="#FA0000"/>
<path d="M142.056 9.38184C136.711 9.38184 132.476 13.4849 132.476 18.839C132.476 24.1931 136.711 28.2962 142.056 28.2962C149.416 28.2962 151.456 22.4167 151.456 22.4167H147.402C147.402 22.4167 145.93 24.9186 142.056 24.9186C139.293 24.9186 136.891 23.1423 136.349 20.0899H151.637V18.839C151.637 13.4849 147.402 9.38184 142.056 9.38184ZM136.53 17.0376C137.072 14.3606 139.474 12.7594 142.056 12.7594C145.362 12.7594 147.221 14.911 147.582 17.0376H136.53Z" fill="#2A2826"/>
<path d="M186.602 10.0322V13.4348H192.851V28.246H196.725V13.4348H203V10.0322H186.602Z" fill="#2A2826"/>
<path d="M96.9938 4.92847H86.3286C79.6661 4.92847 74.2689 10.1824 74.2689 16.6123C74.2689 23.0672 79.6919 28.2962 86.3286 28.2962H96.9938C103.656 28.2962 109.053 23.0422 109.053 16.6123C109.079 10.1574 103.656 4.92847 96.9938 4.92847ZM89.4791 24.3182H86.3544C81.9644 24.3182 78.4007 20.8655 78.4007 16.6123C78.4007 12.3591 81.9644 8.90648 86.3544 8.90648H89.4791V24.3182ZM96.9938 24.3182H93.8691V8.90648H96.9938C101.384 8.90648 104.947 12.3591 104.947 16.6123C104.973 20.8655 101.384 24.3182 96.9938 24.3182Z" fill="#2A2826"/>
<path d="M120.932 10.0322H115.897H112.023V17.663V13.5849V27.6206V33.5H115.897V27.6206H121.165C126.278 27.6206 130.41 23.4924 130.229 18.4886C130.022 13.735 125.839 10.0322 120.932 10.0322ZM121.165 23.8177H115.948V13.8101H121.165C124.005 13.8101 126.33 16.0618 126.33 18.8139C126.33 21.566 124.005 23.8177 121.165 23.8177Z" fill="#2A2826"/>
<path d="M154.142 16.9375V28.2461H158.041V16.9375C158.041 15.2112 159.487 13.8351 161.243 13.8351H166.795V10.0573H161.243C157.344 10.0323 154.142 13.1346 154.142 16.9375Z" fill="#2A2826"/>
<path d="M176.996 9.13159C171.598 9.13159 167.183 13.3848 167.183 18.6388C167.183 23.8678 171.573 28.146 176.996 28.146H185.724V17.613C185.724 12.9345 181.799 9.13159 176.996 9.13159ZM181.825 24.3431H176.996C173.742 24.3431 171.108 21.7912 171.108 18.6388C171.108 15.4864 173.742 12.9345 176.996 12.9345C179.655 12.9345 181.825 15.0361 181.825 17.613V24.3431Z" fill="#2A2826"/>
</g>
<defs>
<clipPath id="clip0_901_2062">
<rect width="203" height="33" fill="white" transform="translate(0 0.5)"/>
</clipPath>
</defs>
</svg>
