<svg width="60" height="60" viewBox="0 0 60 60" fill="none" xmlns="http://www.w3.org/2000/svg">
<path d="M29.9997 12.5H36.6997C41.3247 12.5 43.4747 18.225 39.9997 21.275L20.0247 38.75C16.5497 41.775 18.6997 47.5 23.2997 47.5H29.9997" fill="white"/>
<path fill-rule="evenodd" clip-rule="evenodd" d="M29.2499 12.5C29.2499 12.0858 29.5857 11.75 29.9999 11.75H36.6999C42.0187 11.75 44.4883 18.3334 40.4946 21.8387L40.4937 21.8395L20.5187 39.3145L20.5173 39.3157C17.5664 41.8845 19.3921 46.75 23.2999 46.75H29.9999C30.4141 46.75 30.7499 47.0858 30.7499 47.5C30.7499 47.9142 30.4141 48.25 29.9999 48.25H23.2999C18.008 48.25 15.5338 41.6662 19.5318 38.1849C19.532 38.1847 19.5322 38.1845 19.5325 38.1843L39.5052 20.7113C39.5054 20.7111 39.5057 20.7109 39.5059 20.7107C42.4612 18.1157 40.6308 13.25 36.6999 13.25H29.9999C29.5857 13.25 29.2499 12.9142 29.2499 12.5Z" fill="#2A2826"/>
<path d="M52 42C52 45.273 47.6099 50.2819 45.334 52.6588C44.5989 53.4265 43.4011 53.4265 42.666 52.6588C40.3901 50.2819 36 45.273 36 42C36 37.5817 39.5817 34 44 34C48.4183 34 52 37.5817 52 42Z" fill="white"/>
<path fill-rule="evenodd" clip-rule="evenodd" d="M44 34.75C39.9959 34.75 36.75 37.9959 36.75 42C36.75 42.6637 36.9765 43.4765 37.4023 44.3972C37.8239 45.3091 38.4168 46.2757 39.0923 47.233C40.4434 49.1476 42.081 50.9634 43.2077 52.1401C43.6475 52.5994 44.3525 52.5994 44.7923 52.1401C45.919 50.9634 47.5566 49.1476 48.9077 47.233C49.5832 46.2757 50.1761 45.3091 50.5977 44.3972C51.0235 43.4765 51.25 42.6637 51.25 42C51.25 37.9959 48.0041 34.75 44 34.75ZM35.25 42C35.25 37.1675 39.1675 33.25 44 33.25C48.8325 33.25 52.75 37.1675 52.75 42C52.75 42.9728 52.4278 44.0135 51.9592 45.0268C51.4866 46.0489 50.8398 47.0967 50.1333 48.0979C48.7203 50.1002 47.0249 51.9774 45.8757 53.1775C44.8453 54.2536 43.1547 54.2536 42.1243 53.1775C40.9751 51.9774 39.2797 50.1002 37.8667 48.0979C37.1603 47.0967 36.5134 46.0489 36.0408 45.0268C35.5722 44.0135 35.25 42.9728 35.25 42Z" fill="#FA0000"/>
<path d="M24 12C24 15.273 19.6099 20.2819 17.334 22.6588C16.5989 23.4265 15.4011 23.4265 14.666 22.6588C12.3901 20.2819 8 15.273 8 12C8 7.58172 11.5817 4 16 4C20.4183 4 24 7.58172 24 12Z" fill="white"/>
<path fill-rule="evenodd" clip-rule="evenodd" d="M16 4.75C11.9959 4.75 8.75 7.99594 8.75 12C8.75 12.6637 8.97652 13.4765 9.40226 14.3972C9.82389 15.3091 10.4168 16.2757 11.0923 17.233C12.4434 19.1476 14.081 20.9634 15.2077 22.1401C15.6475 22.5994 16.3525 22.5994 16.7923 22.1401C17.919 20.9634 19.5566 19.1476 20.9077 17.233C21.5832 16.2757 22.1761 15.3091 22.5977 14.3972C23.0235 13.4765 23.25 12.6637 23.25 12C23.25 7.99594 20.0041 4.75 16 4.75ZM7.25 12C7.25 7.16751 11.1675 3.25 16 3.25C20.8325 3.25 24.75 7.16751 24.75 12C24.75 12.9728 24.4278 14.0135 23.9592 15.0268C23.4866 16.0489 22.8398 17.0967 22.1333 18.0979C20.7203 20.1002 19.0249 21.9774 17.8757 23.1775C16.8453 24.2536 15.1547 24.2536 14.1243 23.1775C12.9751 21.9774 11.2797 20.1002 9.86674 18.0979C9.16025 17.0967 8.5134 16.0489 8.04076 15.0268C7.57224 14.0135 7.25 12.9728 7.25 12Z" fill="#2A2826"/>
<path d="M47 41C47 42.6569 45.6569 44 44 44C42.3431 44 41 42.6569 41 41C41 39.3431 42.3431 38 44 38C45.6569 38 47 39.3431 47 41Z" fill="white"/>
<path fill-rule="evenodd" clip-rule="evenodd" d="M44 38.75C42.7574 38.75 41.75 39.7574 41.75 41C41.75 42.2426 42.7574 43.25 44 43.25C45.2426 43.25 46.25 42.2426 46.25 41C46.25 39.7574 45.2426 38.75 44 38.75ZM40.25 41C40.25 38.9289 41.9289 37.25 44 37.25C46.0711 37.25 47.75 38.9289 47.75 41C47.75 43.0711 46.0711 44.75 44 44.75C41.9289 44.75 40.25 43.0711 40.25 41Z" fill="#FA0000"/>
<path d="M19 11C19 12.6569 17.6569 14 16 14C14.3431 14 13 12.6569 13 11C13 9.34315 14.3431 8 16 8C17.6569 8 19 9.34315 19 11Z" fill="white"/>
<path fill-rule="evenodd" clip-rule="evenodd" d="M16 8.75C14.7574 8.75 13.75 9.75736 13.75 11C13.75 12.2426 14.7574 13.25 16 13.25C17.2426 13.25 18.25 12.2426 18.25 11C18.25 9.75736 17.2426 8.75 16 8.75ZM12.25 11C12.25 8.92893 13.9289 7.25 16 7.25C18.0711 7.25 19.75 8.92893 19.75 11C19.75 13.0711 18.0711 14.75 16 14.75C13.9289 14.75 12.25 13.0711 12.25 11Z" fill="#2A2826"/>
</svg>
