<svg width="60" height="60" viewBox="0 0 60 60" fill="none" xmlns="http://www.w3.org/2000/svg">
<path fill-rule="evenodd" clip-rule="evenodd" d="M11.324 12.6557C12.8678 9.88587 15.8423 8 19.25 8H38C38.4142 8 38.75 8.33579 38.75 8.75V29.5833C38.75 32.2892 36.5392 34.5 33.8333 34.5H31.75C31.3357 34.5 31 34.1642 31 33.75C31 33.3358 31.3357 33 31.75 33H33.8333C35.7107 33 37.25 31.4608 37.25 29.5833V9.5H19.25C16.4076 9.5 13.9238 11.0724 12.6343 13.386C12.4326 13.7478 11.9758 13.8776 11.614 13.6759C11.2522 13.4743 11.1224 13.0175 11.324 12.6557Z" fill="#2A2826"/>
<path fill-rule="evenodd" clip-rule="evenodd" d="M37.2503 15C37.2503 14.5858 37.5861 14.25 38.0003 14.25H41.8337C43.6076 14.25 45.2264 15.2105 46.1073 16.7276L46.1098 16.7318L49.6722 22.961C49.8049 23.1931 49.804 23.4784 49.6699 23.7097C49.5357 23.941 49.2885 24.0833 49.0211 24.0833H46.3337C45.602 24.0833 45.0003 24.685 45.0003 25.4167V31.6667C45.0003 32.3983 45.602 33 46.3337 33H52.5837C52.9979 33 53.3337 33.3358 53.3337 33.75V40C53.3337 43.8725 50.2062 47 46.3337 47H44.2503C43.8361 47 43.5003 46.6642 43.5003 46.25C43.5003 44.3725 41.9611 42.8333 40.0837 42.8333C38.2062 42.8333 36.667 44.3725 36.667 46.25C36.667 46.6642 36.3312 47 35.917 47H27.5837C27.1694 47 26.8337 46.6642 26.8337 46.25C26.8337 44.3725 25.2944 42.8333 23.417 42.8333C21.5395 42.8333 20.0003 44.3725 20.0003 46.25C20.0003 46.6642 19.6645 47 19.2503 47H17.167C13.2944 47 10.167 43.8725 10.167 40V32.583C10.167 32.1688 10.5028 31.833 10.917 31.833C11.3312 31.833 11.667 32.1688 11.667 32.583V40C11.667 43.0441 14.1229 45.5 17.167 45.5H18.5577C18.9212 43.1473 20.966 41.3333 23.417 41.3333C25.868 41.3333 27.9128 43.1473 28.2763 45.5H35.2244C35.5879 43.1473 37.6326 41.3333 40.0837 41.3333C42.5347 41.3333 44.5795 43.1473 44.9429 45.5H46.3337C49.3778 45.5 51.8337 43.0441 51.8337 40V34.5H46.3337C44.7736 34.5 43.5003 33.2267 43.5003 31.6667V25.4167C43.5003 23.8566 44.7736 22.5833 46.3337 22.5833H47.7282L44.8101 17.4808C44.8097 17.4801 44.8093 17.4794 44.8089 17.4787C44.1895 16.4137 43.0591 15.75 41.8337 15.75H38.7503V29.5833C38.7503 32.2892 36.5395 34.5 33.8337 34.5H31.7503C31.3361 34.5 31.0003 34.1642 31.0003 33.75C31.0003 33.3358 31.3361 33 31.7503 33H33.8337C35.7111 33 37.2503 31.4608 37.2503 29.5833V15Z" fill="#2A2826"/>
<path fill-rule="evenodd" clip-rule="evenodd" d="M23.4167 42.833C21.5297 42.833 20 44.3627 20 46.2497C20 48.1366 21.5297 49.6663 23.4167 49.6663C25.3036 49.6663 26.8333 48.1366 26.8333 46.2497C26.8333 44.3627 25.3036 42.833 23.4167 42.833ZM18.5 46.2497C18.5 43.5343 20.7013 41.333 23.4167 41.333C26.1321 41.333 28.3333 43.5343 28.3333 46.2497C28.3333 48.9651 26.1321 51.1663 23.4167 51.1663C20.7013 51.1663 18.5 48.9651 18.5 46.2497Z" fill="#2A2826"/>
<path fill-rule="evenodd" clip-rule="evenodd" d="M40.0832 42.833C38.1962 42.833 36.6665 44.3627 36.6665 46.2497C36.6665 48.1366 38.1962 49.6663 40.0832 49.6663C41.9701 49.6663 43.4998 48.1366 43.4998 46.2497C43.4998 44.3627 41.9701 42.833 40.0832 42.833ZM35.1665 46.2497C35.1665 43.5343 37.3678 41.333 40.0832 41.333C42.7986 41.333 44.9998 43.5343 44.9998 46.2497C44.9998 48.9651 42.7986 51.1663 40.0832 51.1663C37.3678 51.1663 35.1665 48.9651 35.1665 46.2497Z" fill="#2A2826"/>
<path fill-rule="evenodd" clip-rule="evenodd" d="M46.3333 24.083C45.6017 24.083 45 24.6847 45 25.4163V31.6663C45 32.398 45.6017 32.9997 46.3333 32.9997H51.8333V29.7818L48.585 24.083H46.3333ZM43.5 25.4163C43.5 23.8563 44.7733 22.583 46.3333 22.583H49.0208C49.2902 22.583 49.5389 22.7275 49.6724 22.9616L53.2349 29.2116C53.2994 29.3248 53.3333 29.4528 53.3333 29.583V33.7497C53.3333 34.1639 52.9975 34.4997 52.5833 34.4997H46.3333C44.7733 34.4997 43.5 33.2264 43.5 31.6663V25.4163Z" fill="#2A2826"/>
<path fill-rule="evenodd" clip-rule="evenodd" d="M10.167 21.25C10.167 20.8358 10.5028 20.5 10.917 20.5H23.417C23.8312 20.5 24.167 20.8358 24.167 21.25C24.167 21.6642 23.8312 22 23.417 22H10.917C10.5028 22 10.167 21.6642 10.167 21.25Z" fill="#FA0000"/>
<path fill-rule="evenodd" clip-rule="evenodd" d="M7 28.583C7 28.1688 7.33579 27.833 7.75 27.833H16.0833C16.4975 27.833 16.8333 28.1688 16.8333 28.583C16.8333 28.9972 16.4975 29.333 16.0833 29.333H7.75C7.33579 29.333 7 28.9972 7 28.583Z" fill="#FA0000"/>
</svg>
