<svg width="60" height="60" viewBox="0 0 60 60" fill="none" xmlns="http://www.w3.org/2000/svg">
<path fill-rule="evenodd" clip-rule="evenodd" d="M20.0249 4.25C20.4391 4.25 20.7749 4.58579 20.7749 5V10C20.7749 10.4142 20.4391 10.75 20.0249 10.75C19.6107 10.75 19.2749 10.4142 19.2749 10V5C19.2749 4.58579 19.6107 4.25 20.0249 4.25Z" fill="#2A2826"/>
<path fill-rule="evenodd" clip-rule="evenodd" d="M30 4.25C30.4142 4.25 30.75 4.58579 30.75 5V10C30.75 10.4142 30.4142 10.75 30 10.75C29.5858 10.75 29.25 10.4142 29.25 10V5C29.25 4.58579 29.5858 4.25 30 4.25Z" fill="#2A2826"/>
<path fill-rule="evenodd" clip-rule="evenodd" d="M40 4.25C40.4142 4.25 40.75 4.58579 40.75 5V10C40.75 10.4142 40.4142 10.75 40 10.75C39.5858 10.75 39.25 10.4142 39.25 10V5C39.25 4.58579 39.5858 4.25 40 4.25Z" fill="#2A2826"/>
<path fill-rule="evenodd" clip-rule="evenodd" d="M49.25 20C49.25 19.5858 49.5858 19.25 50 19.25H55C55.4142 19.25 55.75 19.5858 55.75 20C55.75 20.4142 55.4142 20.75 55 20.75H50C49.5858 20.75 49.25 20.4142 49.25 20Z" fill="#2A2826"/>
<path fill-rule="evenodd" clip-rule="evenodd" d="M4.25 20C4.25 19.5858 4.58579 19.25 5 19.25H10C10.4142 19.25 10.75 19.5858 10.75 20C10.75 20.4142 10.4142 20.75 10 20.75H5C4.58579 20.75 4.25 20.4142 4.25 20Z" fill="#2A2826"/>
<path fill-rule="evenodd" clip-rule="evenodd" d="M4.25 30C4.25 29.5858 4.58579 29.25 5 29.25H10C10.4142 29.25 10.75 29.5858 10.75 30C10.75 30.4142 10.4142 30.75 10 30.75H5C4.58579 30.75 4.25 30.4142 4.25 30Z" fill="#2A2826"/>
<path fill-rule="evenodd" clip-rule="evenodd" d="M4.25 40C4.25 39.5858 4.58579 39.25 5 39.25H10C10.4142 39.25 10.75 39.5858 10.75 40C10.75 40.4142 10.4142 40.75 10 40.75H5C4.58579 40.75 4.25 40.4142 4.25 40Z" fill="#2A2826"/>
<path fill-rule="evenodd" clip-rule="evenodd" d="M24 9.25C18.926 9.25 15.1791 10.2602 12.7197 12.7197C10.2602 15.1791 9.25 18.926 9.25 24V36C9.25 41.074 10.2602 44.8209 12.7197 47.2803C15.1791 49.7398 18.926 50.75 24 50.75H24.4526C24.2226 50.2586 24.0212 49.7594 23.8474 49.2497C19.0067 49.2294 15.7997 48.2391 13.7803 46.2197C11.7398 44.1791 10.75 40.926 10.75 36V24C10.75 19.074 11.7398 15.8209 13.7803 13.7803C15.8209 11.7398 19.074 10.75 24 10.75H36C40.926 10.75 44.1791 11.7398 46.2197 13.7803C48.2602 15.8209 49.25 19.074 49.25 24V31.3831C49.7608 31.6697 50.2609 31.9868 50.75 32.3368V24C50.75 18.926 49.7398 15.1791 47.2803 12.7197C44.8209 10.2602 41.074 9.25 36 9.25H24Z" fill="#2A2826"/>
<path fill-rule="evenodd" clip-rule="evenodd" d="M26.25 16.75C23.051 16.75 20.6166 17.3852 19.0009 19.0009C17.3852 20.6166 16.75 23.051 16.75 26.25V33.75C16.75 36.949 17.3852 39.3834 19.0009 40.9991C20.0182 42.0164 21.36 42.645 23.0129 42.971C23.029 42.4801 23.0602 41.9764 23.106 41.4587C21.7693 41.167 20.781 40.6579 20.0616 39.9384C18.8648 38.7416 18.25 36.801 18.25 33.75V26.25C18.25 23.199 18.8648 21.2584 20.0616 20.0616C21.2584 18.8648 23.199 18.25 26.25 18.25H33.75C36.801 18.25 38.7416 18.8648 39.9384 20.0616C41.1352 21.2584 41.75 23.199 41.75 26.25V29.1521C42.2572 29.2035 42.7572 29.2689 43.25 29.3496V26.25C43.25 23.051 42.6148 20.6166 40.9991 19.0009C39.3834 17.3852 36.949 16.75 33.75 16.75H26.25Z" fill="#2A2826"/>
<path fill-rule="evenodd" clip-rule="evenodd" d="M37 31.75C32.4437 31.75 28.75 35.4437 28.75 40C28.75 44.5563 32.4437 48.25 37 48.25C41.5563 48.25 45.25 44.5563 45.25 40C45.25 35.4437 41.5563 31.75 37 31.75ZM27.25 40C27.25 34.6152 31.6152 30.25 37 30.25C42.3848 30.25 46.75 34.6152 46.75 40C46.75 45.3848 42.3848 49.75 37 49.75C31.6152 49.75 27.25 45.3848 27.25 40Z" fill="#FA0000"/>
<path fill-rule="evenodd" clip-rule="evenodd" d="M43.4697 46.4697C43.7626 46.1768 44.2374 46.1768 44.5303 46.4697L50.5303 52.4697C50.8232 52.7626 50.8232 53.2374 50.5303 53.5303C50.2374 53.8232 49.7626 53.8232 49.4697 53.5303L43.4697 47.5303C43.1768 47.2374 43.1768 46.7626 43.4697 46.4697Z" fill="#FA0000"/>
</svg>
