<svg width="60" height="60" viewBox="0 0 60 60" fill="none" xmlns="http://www.w3.org/2000/svg">
<path fill-rule="evenodd" clip-rule="evenodd" d="M4.25 10C4.25 9.58579 4.58579 9.25 5 9.25H12.5773C12.9915 9.25 13.3273 9.58579 13.3273 10V44.25H54C54.4142 44.25 54.75 44.5858 54.75 45C54.75 45.4142 54.4142 45.75 54 45.75H12.5773C12.1631 45.75 11.8273 45.4142 11.8273 45V10.75H5C4.58579 10.75 4.25 10.4142 4.25 10Z" fill="#2A2826"/>
<path d="M22 53.5C22 55.9853 19.9853 58 17.5 58C15.0147 58 13 55.9853 13 53.5C13 51.0147 15.0147 49 17.5 49C19.9853 49 22 51.0147 22 53.5Z" fill="white"/>
<path fill-rule="evenodd" clip-rule="evenodd" d="M17.5 49.75C15.4289 49.75 13.75 51.4289 13.75 53.5C13.75 55.5711 15.4289 57.25 17.5 57.25C19.5711 57.25 21.25 55.5711 21.25 53.5C21.25 51.4289 19.5711 49.75 17.5 49.75ZM12.25 53.5C12.25 50.6005 14.6005 48.25 17.5 48.25C20.3995 48.25 22.75 50.6005 22.75 53.5C22.75 56.3995 20.3995 58.75 17.5 58.75C14.6005 58.75 12.25 56.3995 12.25 53.5Z" fill="#2A2826"/>
<path d="M52 53.5C52 55.9853 49.9853 58 47.5 58C45.0147 58 43 55.9853 43 53.5C43 51.0147 45.0147 49 47.5 49C49.9853 49 52 51.0147 52 53.5Z" fill="white"/>
<path fill-rule="evenodd" clip-rule="evenodd" d="M47.5 49.75C45.4289 49.75 43.75 51.4289 43.75 53.5C43.75 55.5711 45.4289 57.25 47.5 57.25C49.5711 57.25 51.25 55.5711 51.25 53.5C51.25 51.4289 49.5711 49.75 47.5 49.75ZM42.25 53.5C42.25 50.6005 44.6005 48.25 47.5 48.25C50.3995 48.25 52.75 50.6005 52.75 53.5C52.75 56.3995 50.3995 58.75 47.5 58.75C44.6005 58.75 42.25 56.3995 42.25 53.5Z" fill="#2A2826"/>
<path d="M18 30C18 28.8954 18.8954 28 20 28H27C28.1046 28 29 28.8954 29 30V37C29 38.1046 28.1046 39 27 39H20C18.8954 39 18 38.1046 18 37V30Z" fill="white"/>
<path fill-rule="evenodd" clip-rule="evenodd" d="M17.25 30C17.25 28.4812 18.4812 27.25 20 27.25H27C28.5188 27.25 29.75 28.4812 29.75 30V37C29.75 38.5188 28.5188 39.75 27 39.75H20C18.4812 39.75 17.25 38.5188 17.25 37V30ZM20 28.75C19.3096 28.75 18.75 29.3096 18.75 30V37C18.75 37.6904 19.3096 38.25 20 38.25H27C27.6904 38.25 28.25 37.6904 28.25 37V30C28.25 29.3096 27.6904 28.75 27 28.75H20Z" fill="#2A2826"/>
<path d="M18 16C18 14.8954 18.8954 14 20 14H27C28.1046 14 29 14.8954 29 16V23C29 24.1046 28.1046 25 27 25H20C18.8954 25 18 24.1046 18 23V16Z" fill="white"/>
<path fill-rule="evenodd" clip-rule="evenodd" d="M17.25 16C17.25 14.4812 18.4812 13.25 20 13.25H27C28.5188 13.25 29.75 14.4812 29.75 16V23C29.75 24.5188 28.5188 25.75 27 25.75H20C18.4812 25.75 17.25 24.5188 17.25 23V16ZM20 14.75C19.3096 14.75 18.75 15.3096 18.75 16V23C18.75 23.6904 19.3096 24.25 20 24.25H27C27.6904 24.25 28.25 23.6904 28.25 23V16C28.25 15.3096 27.6904 14.75 27 14.75H20Z" fill="#2A2826"/>
<path d="M32 16C32 14.8954 32.8954 14 34 14H41C42.1046 14 43 14.8954 43 16V23C43 24.1046 42.1046 25 41 25H34C32.8954 25 32 24.1046 32 23V16Z" fill="white"/>
<path fill-rule="evenodd" clip-rule="evenodd" d="M31.25 16C31.25 14.4812 32.4812 13.25 34 13.25H41C42.5188 13.25 43.75 14.4812 43.75 16V23C43.75 24.5188 42.5188 25.75 41 25.75H34C32.4812 25.75 31.25 24.5188 31.25 23V16ZM34 14.75C33.3096 14.75 32.75 15.3096 32.75 16V23C32.75 23.6904 33.3096 24.25 34 24.25H41C41.6904 24.25 42.25 23.6904 42.25 23V16C42.25 15.3096 41.6904 14.75 41 14.75H34Z" fill="#FA0000"/>
<path d="M32 30C32 28.8954 32.8954 28 34 28H41C42.1046 28 43 28.8954 43 30V37C43 38.1046 42.1046 39 41 39H34C32.8954 39 32 38.1046 32 37V30Z" fill="white"/>
<path fill-rule="evenodd" clip-rule="evenodd" d="M31.25 30C31.25 28.4812 32.4812 27.25 34 27.25H41C42.5188 27.25 43.75 28.4812 43.75 30V37C43.75 38.5188 42.5188 39.75 41 39.75H34C32.4812 39.75 31.25 38.5188 31.25 37V30ZM34 28.75C33.3096 28.75 32.75 29.3096 32.75 30V37C32.75 37.6904 33.3096 38.25 34 38.25H41C41.6904 38.25 42.25 37.6904 42.25 37V30C42.25 29.3096 41.6904 28.75 41 28.75H34Z" fill="#2A2826"/>
</svg>
