<svg width="38" height="38" viewBox="0 0 38 38" fill="none" xmlns="http://www.w3.org/2000/svg">
<path d="M3.78955 14.0315V23.9685C3.78955 27.6075 3.78955 27.6075 7.16967 29.9268L16.465 35.3852C17.8603 36.2049 20.1399 36.2049 21.5352 35.3852L30.8305 29.9268C34.2106 27.6075 34.2106 27.6075 34.2106 23.9685V14.0315C34.2106 10.3925 34.2106 10.3925 30.8305 8.07321L21.5352 2.61482C20.1399 1.79506 17.8603 1.79506 16.465 2.61482L7.16967 8.07321C3.78955 10.3925 3.78955 10.3925 3.78955 14.0315Z" stroke="#2A2826" stroke-width="1.5" stroke-linecap="round" stroke-linejoin="round"/>
<path d="M20.2133 14.3825L21.3023 16.0327C21.4743 16.2923 21.8564 16.5519 22.143 16.626L24.0919 17.1081C25.2956 17.4048 25.6205 18.406 24.8371 19.3331L23.5569 20.8349C23.3659 21.076 23.213 21.5024 23.2321 21.7991L23.3468 23.7459C23.4232 24.9511 22.5443 25.563 21.3979 25.118L19.5254 24.3949C19.2388 24.2836 18.7611 24.2836 18.4745 24.3949L16.6021 25.118C15.4557 25.563 14.5768 24.9326 14.6532 23.7459L14.7678 21.7991C14.7869 21.5024 14.6341 21.0574 14.443 20.8349L13.1629 19.3331C12.3795 18.406 12.7043 17.4048 13.908 17.1081L15.8569 16.626C16.1626 16.5519 16.5448 16.2737 16.6976 16.0327L17.7867 14.3825C18.4745 13.3813 19.5445 13.3813 20.2133 14.3825Z" stroke="#2A2826" stroke-width="1.5" stroke-linecap="round" stroke-linejoin="round"/>
</svg>
