<svg width="38" height="38" viewBox="0 0 38 38" fill="none" xmlns="http://www.w3.org/2000/svg">
<path d="M13 24.8293L17.6043 28.1658C18.1984 28.7219 19.5352 29 20.4263 29H26.0704C27.8527 29 29.7835 27.7488 30.2291 26.0805L33.7937 15.9319C34.5364 13.9856 33.1996 12.3173 30.9717 12.3173H24.5C23.6088 12.3173 22.8662 11.6222 23.0147 10.649L24.3903 7.99528C25.7455 5.38064 26.3955 1.99381 23.6105 1.03625C23.5733 1.02346 23.5364 1.01137 23.5 1C22.3118 0.582933 20.8265 1.13902 20.2324 1.97316L13 12.5953" stroke="#2A2826" stroke-width="1.5" stroke-miterlimit="10"/>
<path d="M5 25.3456V11.6544C5 9.69853 5.96 9 8.2 9H9.8C12.04 9 13 9.69853 13 11.6544V25.3456C13 27.3015 12.04 28 9.8 28H8.2C5.96 28 5 27.3015 5 25.3456Z" stroke="#2A2826" stroke-width="1.5" stroke-linecap="round" stroke-linejoin="round"/>
</svg>
