<svg width="38" height="38" viewBox="0 0 38 38" fill="none" xmlns="http://www.w3.org/2000/svg">
<path fill-rule="evenodd" clip-rule="evenodd" d="M7.62165 16.1735C8.90442 15.5617 10.3467 15.226 11.8749 15.226C17.0539 15.226 21.3333 19.1564 21.3333 24.1142C21.3333 25.7059 20.881 27.202 20.0922 28.4917C20.3433 28.5039 20.5967 28.5101 20.8524 28.5101C20.9873 28.5101 21.1196 28.5464 21.2356 28.6153L27.8751 32.561C28.4541 32.9116 29.2013 32.4461 29.1171 31.7414C29.117 31.7412 29.1171 31.7417 29.1171 31.7414L28.4997 26.7395C28.4658 26.4642 28.5865 26.1927 28.8136 26.0335C32.0219 23.7846 34.0833 20.2201 34.0833 16.2134C34.0833 9.47123 28.2143 3.91675 20.8524 3.91675C13.505 3.91675 7.64476 9.44932 7.62165 16.1735ZM6.12158 16.2134C6.12158 8.54723 12.761 2.41675 20.8524 2.41675C28.9438 2.41675 35.5833 8.54723 35.5833 16.2134C35.5833 20.5986 33.403 24.4812 30.0427 26.9952L30.6062 31.5612C30.8378 33.4832 28.7698 34.8533 27.1012 33.8459C27.1001 33.8453 27.0991 33.8447 27.0981 33.8441L20.6443 30.0088C19.9552 30.0006 19.2783 29.9514 18.6136 29.8607C18.342 29.8237 18.1123 29.6415 18.0144 29.3855C17.9165 29.1295 17.9661 28.8405 18.1436 28.6317C19.2076 27.3808 19.8333 25.8088 19.8333 24.1142C19.8333 20.0787 16.3226 16.726 11.8749 16.726C10.1825 16.726 8.63084 17.2068 7.34441 18.0451C7.12726 18.1866 6.85243 18.206 6.61758 18.0963C6.38273 17.9866 6.22115 17.7635 6.19027 17.5061C6.1381 17.0713 6.12158 16.6438 6.12158 16.2134Z" fill="#FA0000"/>
<path fill-rule="evenodd" clip-rule="evenodd" d="M11.8748 16.7258C10.1825 16.7258 8.63075 17.2066 7.34433 18.045L7.33865 18.0487L7.33864 18.0486C5.25451 19.3802 3.9165 21.606 3.9165 24.1141C3.9165 26.5075 5.13998 28.645 7.07746 29.9897C7.3071 30.149 7.42906 30.4229 7.39386 30.7002L6.9986 33.8149C6.98864 33.9065 7.02855 33.9889 7.11149 34.0431C7.19303 34.0964 7.27571 34.0971 7.35007 34.0515L7.35934 34.0458L7.35938 34.0459L11.4919 31.5917C11.6078 31.5229 11.7401 31.4866 11.8748 31.4866C14.4433 31.4866 16.7149 30.3632 18.1363 28.6402L18.1435 28.6315L18.1436 28.6315C19.2075 27.3806 19.8332 25.8087 19.8332 24.1141C19.8332 20.0786 16.3225 16.7258 11.8748 16.7258ZM6.5282 16.7864C8.05954 15.7893 9.8951 15.2258 11.8748 15.2258C17.0538 15.2258 21.3332 19.1563 21.3332 24.1141C21.3332 26.1858 20.5669 28.0957 19.2898 29.5991C17.616 31.6252 15.0029 32.925 12.0843 32.9845L8.12947 35.3331C6.8805 36.0941 5.34385 35.0423 5.50914 33.6373L5.50994 33.6305L5.50997 33.6305L5.85015 30.9499C3.75632 29.3375 2.4165 26.8802 2.4165 24.1141C2.4165 21.05 4.05392 18.3685 6.5282 16.7864Z" fill="#FA0000"/>
</svg>
