<svg width="38" height="38" viewBox="0 0 38 38" fill="none" xmlns="http://www.w3.org/2000/svg">
<path fill-rule="evenodd" clip-rule="evenodd" d="M7.62177 16.1734C8.90454 15.5616 10.3468 15.2258 11.875 15.2258C17.054 15.2258 21.3334 19.1563 21.3334 24.1141C21.3334 25.7058 20.8811 27.2019 20.0923 28.4916C20.3434 28.5038 20.5968 28.5099 20.8525 28.5099C20.9874 28.5099 21.1198 28.5463 21.2357 28.6152L27.8752 32.5609C28.4542 32.9115 29.2015 32.446 29.1172 31.7413C29.1172 31.741 29.1172 31.7416 29.1172 31.7413L28.4999 26.7394C28.4659 26.4641 28.5866 26.1925 28.8137 26.0333C32.022 23.7845 34.0834 20.22 34.0834 16.2133C34.0834 9.47111 28.2144 3.91663 20.8525 3.91663C13.5052 3.91663 7.64488 9.4492 7.62177 16.1734ZM6.1217 16.2133C6.1217 8.54711 12.7611 2.41663 20.8525 2.41663C28.944 2.41663 35.5834 8.54711 35.5834 16.2133C35.5834 20.5984 33.4031 24.4811 30.0428 26.995L30.6063 31.5611C30.8379 33.483 28.7699 34.8531 27.1013 33.8458C27.1003 33.8452 27.0992 33.8446 27.0982 33.8439L20.6444 30.0087C19.9554 30.0005 19.2784 29.9512 18.6137 29.8606C18.3422 29.8236 18.1124 29.6414 18.0145 29.3853C17.9166 29.1293 17.9662 28.8403 18.1438 28.6316C19.2078 27.3806 19.8334 25.8087 19.8334 24.1141C19.8334 20.0786 16.3227 16.7258 11.875 16.7258C10.1827 16.7258 8.63096 17.2066 7.34454 18.045C7.12738 18.1865 6.85255 18.2059 6.6177 18.0962C6.38285 17.9865 6.22128 17.7633 6.19039 17.506C6.13822 17.0712 6.1217 16.6437 6.1217 16.2133Z" fill="#2A2826"/>
<path fill-rule="evenodd" clip-rule="evenodd" d="M11.875 16.7258C10.1826 16.7258 8.63088 17.2066 7.34445 18.045L7.33878 18.0487L7.33876 18.0486C5.25463 19.3802 3.91663 21.606 3.91663 24.1141C3.91663 26.5075 5.1401 28.645 7.07758 29.9897C7.30723 30.149 7.42918 30.4229 7.39399 30.7002L6.99872 33.8149C6.98876 33.9065 7.02867 33.9889 7.11162 34.0431C7.19316 34.0964 7.27583 34.0971 7.3502 34.0515L7.35946 34.0458L7.3595 34.0459L11.492 31.5917C11.6079 31.5229 11.7402 31.4866 11.875 31.4866C14.4434 31.4866 16.715 30.3632 18.1364 28.6402L18.1436 28.6315L18.1437 28.6315C19.2077 27.3806 19.8333 25.8087 19.8333 24.1141C19.8333 20.0786 16.3226 16.7258 11.875 16.7258ZM6.52832 16.7864C8.05966 15.7893 9.89522 15.2258 11.875 15.2258C17.054 15.2258 21.3333 19.1563 21.3333 24.1141C21.3333 26.1858 20.5671 28.0957 19.2899 29.5991C17.6162 31.6252 15.003 32.925 12.0845 32.9845L8.12959 35.3331C6.88062 36.0941 5.34397 35.0423 5.50926 33.6373L5.51006 33.6305L5.51009 33.6305L5.85028 30.9499C3.75645 29.3375 2.41663 26.8802 2.41663 24.1141C2.41663 21.05 4.05404 18.3685 6.52832 16.7864Z" fill="#2A2826"/>
</svg>
