<svg width="38" height="38" viewBox="0 0 38 38" fill="none" xmlns="http://www.w3.org/2000/svg">
<path d="M3.27755 7.28331C4.54421 1.80498 12.7934 1.80498 14.0442 7.28331C14.7884 10.4975 12.7459 13.2208 10.9725 14.915C9.67421 16.15 7.63171 16.1341 6.33338 14.915C4.57588 13.2208 2.53338 10.4975 3.27755 7.28331Z" stroke="#2A2826" stroke-width="1.5"/>
<path d="M23.8608 26.2833C25.1275 20.805 33.4242 20.805 34.6908 26.2833C35.435 29.4975 33.3925 32.2208 31.6033 33.915C30.305 35.15 28.2467 35.1341 26.9483 33.915C25.1592 32.2208 23.1167 29.4975 23.8608 26.2833Z" stroke="#2A2826" stroke-width="1.5"/>
<path d="M18.9999 7.91663H23.2433C26.1724 7.91663 27.5341 11.5425 25.3333 13.4741L12.6824 24.5416C10.4816 26.4575 11.8433 30.0833 14.7566 30.0833H18.9999" stroke="#2A2826" stroke-width="1.5" stroke-linecap="round" stroke-linejoin="round"/>
<path d="M8.68639 8.70829H8.70468" stroke="#2A2826" stroke-width="2" stroke-linecap="round" stroke-linejoin="round"/>
<path d="M29.2699 27.7083H29.2882" stroke="#2A2826" stroke-width="2" stroke-linecap="round" stroke-linejoin="round"/>
</svg>
