<svg width="38" height="38" viewBox="0 0 38 38" fill="none" xmlns="http://www.w3.org/2000/svg">
<path d="M3.27743 7.28331C4.54409 1.80498 12.7933 1.80498 14.0441 7.28331C14.7883 10.4975 12.7458 13.2208 10.9724 14.915C9.67409 16.15 7.63159 16.1341 6.33326 14.915C4.57576 13.2208 2.53326 10.4975 3.27743 7.28331Z" stroke="#FA0000" stroke-width="1.5"/>
<path d="M23.8608 26.2833C25.1275 20.805 33.4242 20.805 34.6908 26.2833C35.435 29.4975 33.3925 32.2208 31.6033 33.915C30.305 35.15 28.2467 35.1341 26.9483 33.915C25.1592 32.2208 23.1167 29.4975 23.8608 26.2833Z" stroke="#FA0000" stroke-width="1.5"/>
<path d="M18.9997 7.91675H23.243C26.1722 7.91675 27.5339 11.5426 25.333 13.4742L12.6822 24.5417C10.4814 26.4576 11.843 30.0834 14.7564 30.0834H18.9997" stroke="#FA0000" stroke-width="1.5" stroke-linecap="round" stroke-linejoin="round"/>
<path d="M8.68639 8.70841H8.70468" stroke="#FA0000" stroke-width="2" stroke-linecap="round" stroke-linejoin="round"/>
<path d="M29.2699 27.7084H29.2882" stroke="#FA0000" stroke-width="2" stroke-linecap="round" stroke-linejoin="round"/>
</svg>
